<svg xmlns="http://www.w3.org/2000/svg" width="581.635" height="515.394" viewBox="0 0 581.635 515.394">
    <defs>
        <style>
            .prefix__cls-1{fill:#f0f3fc}.prefix__cls-2{fill:#e6e9f8}.prefix__cls-9{fill:#8a8add}.prefix__cls-15{fill:#adadea}.prefix__cls-23{fill:#edb6a4}.prefix__cls-24{opacity:.1}.prefix__cls-25{fill:#393768}.prefix__cls-26{fill:#cce9f1}.prefix__cls-27{fill:#6a6ae5}.prefix__cls-28{fill:#83d7ea}.prefix__cls-29{fill:#a8cfef}.prefix__cls-30{fill:#84b6d8}.prefix__cls-33{fill:#9090d3}
        </style>
    </defs>
    <g id="prefix__Error_Page_Illustration" data-name="Error Page Illustration" transform="translate(-1000.095 -336.439)">
        <g id="prefix__Group_1590" data-name="Group 1590" transform="translate(1017.639 336.439)">
            <ellipse id="prefix__Ellipse_198" cx="282.046" cy="85.092" class="prefix__cls-1" data-name="Ellipse 198" rx="282.046" ry="85.092" transform="translate(0 345.21)"/>
            <path id="prefix__Path_4390" d="M1522.006 514.192a176.832 176.832 0 0 1-39.706 111.966h-275.984a176.832 176.832 0 0 1-39.71-111.965c0-98.171 79.528-177.753 177.7-177.753s177.7 79.581 177.7 177.752z" class="prefix__cls-1" data-name="Path 4390" transform="translate(-1096.766 -336.439)"/>
        </g>
        <g id="prefix__Group_1672" data-name="Group 1672" transform="translate(1000.095 349.937)">
            <g id="prefix__Group_1603" data-name="Group 1603" transform="translate(328.072 30.521)">
                <g id="prefix__Group_1594" data-name="Group 1594" transform="translate(32.627)">
                    <path id="prefix__Path_4391" d="M1687.41 425.364v56.023a4.584 4.584 0 0 0 1.211 3.23 4.056 4.056 0 0 0 1.615 1.313 4.69 4.69 0 0 0 2.322.606h82.067a5.17 5.17 0 0 0 5.148-5.148v-56.024a5.084 5.084 0 0 0-5.148-5.047h-82.067a5.084 5.084 0 0 0-5.148 5.047z" class="prefix__cls-2" data-name="Path 4391" transform="translate(-1687.41 -420.317)"/>
                    <g id="prefix__Group_1591" data-name="Group 1591" transform="translate(12.538 22.031)">
                        <path id="prefix__Rectangle_2526" d="M0 0H16.066V4.063H0z" data-name="Rectangle 2526" transform="translate(0 33.727)" style="fill:#7a7add"/>
                        <path id="prefix__Rectangle_2527" d="M0 0H16.066V3.824H0z" data-name="Rectangle 2527" transform="translate(0 26.981)" style="fill:#8181df"/>
                        <path id="prefix__Rectangle_2528" d="M0 0H16.066V3.584H0z" data-name="Rectangle 2528" transform="translate(0 20.236)" style="fill:#8888e1"/>
                        <path id="prefix__Rectangle_2529" d="M0 0H16.066V3.345H0z" data-name="Rectangle 2529" transform="translate(0 13.491)" style="fill:#9090e4"/>
                        <path id="prefix__Rectangle_2530" d="M0 0H16.066V3.105H0z" data-name="Rectangle 2530" transform="translate(0 6.745)" style="fill:#9797e6"/>
                        <path id="prefix__Rectangle_2531" d="M0 0H16.066V2.866H0z" data-name="Rectangle 2531" style="fill:#9e9ee8"/>
                    </g>
                    <g id="prefix__Group_1592" data-name="Group 1592" transform="translate(37.932 22.031)">
                        <path id="prefix__Rectangle_2532" d="M0 0H16.066V4.063H0z" class="prefix__cls-9" data-name="Rectangle 2532" transform="translate(0 33.727)"/>
                        <path id="prefix__Rectangle_2533" d="M0 0H16.066V3.824H0z" data-name="Rectangle 2533" transform="translate(0 26.981)" style="fill:#9292e1"/>
                        <path id="prefix__Rectangle_2534" d="M0 0H16.066V3.584H0z" data-name="Rectangle 2534" transform="translate(0 20.236)" style="fill:#9b9be4"/>
                        <path id="prefix__Rectangle_2535" d="M0 0H16.066V3.345H0z" data-name="Rectangle 2535" transform="translate(0 13.491)" style="fill:#a3a3e8"/>
                        <path id="prefix__Rectangle_2536" d="M0 0H16.066V3.105H0z" data-name="Rectangle 2536" transform="translate(0 6.745)" style="fill:#acaceb"/>
                        <path id="prefix__Rectangle_2537" d="M0 0H16.066V2.866H0z" data-name="Rectangle 2537" style="fill:#b4b4ef"/>
                    </g>
                    <g id="prefix__Group_1593" data-name="Group 1593" transform="translate(63.325 22.031)">
                        <path id="prefix__Rectangle_2538" d="M0 0H16.066V4.063H0z" class="prefix__cls-15" data-name="Rectangle 2538" transform="translate(0 33.727)"/>
                        <path id="prefix__Rectangle_2539" d="M0 0H16.066V3.824H0z" data-name="Rectangle 2539" transform="translate(0 26.981)" style="fill:#b3b3ed"/>
                        <path id="prefix__Rectangle_2540" d="M0 0H16.066V3.584H0z" data-name="Rectangle 2540" transform="translate(0 20.236)" style="fill:#b9b9f0"/>
                        <path id="prefix__Rectangle_2541" d="M0 0H16.066V3.345H0z" data-name="Rectangle 2541" transform="translate(0 13.491)" style="fill:#bebef3"/>
                        <path id="prefix__Rectangle_2542" d="M0 0H16.066V3.105H0z" data-name="Rectangle 2542" transform="translate(0 6.745)" style="fill:#c4c4f6"/>
                        <path id="prefix__Rectangle_2543" d="M0 0H16.066V2.866H0z" data-name="Rectangle 2543" style="fill:#cacaf9"/>
                    </g>
                    <path id="prefix__Path_4392" d="M1816.336 439.516c0-2.11 3.82-5.858 3.82-5.858s3.821 3.748 3.821 5.858a3.82 3.82 0 0 1-7.64 0z" data-name="Path 4392" transform="translate(-1748.677 -426.657)" style="fill:#acacdd"/>
                    <path id="prefix__Path_4393" d="M1769.041 439.516c0-2.11 3.82-5.858 3.82-5.858s3.82 3.748 3.82 5.858a3.82 3.82 0 0 1-7.64 0z" data-name="Path 4393" transform="translate(-1726.202 -426.657)" style="fill:#9898d8"/>
                    <path id="prefix__Path_4394" d="M1721.746 439.516c0-2.11 3.82-5.858 3.82-5.858s3.82 3.748 3.82 5.858a3.82 3.82 0 1 1-7.64 0z" class="prefix__cls-9" data-name="Path 4394" transform="translate(-1703.727 -426.657)"/>
                </g>
                <g id="prefix__Group_1602" data-name="Group 1602" transform="translate(0 43.957)">
                    <g id="prefix__Group_1600" data-name="Group 1600">
                        <g id="prefix__Group_1596" data-name="Group 1596" transform="translate(23.275 105.366)">
                            <g id="prefix__Group_1595" data-name="Group 1595">
                                <path id="prefix__Path_4395" d="M1671.746 704.854l-.257 1.6c-.451.227-.476.432-.711.931a3.423 3.423 0 0 0-.377 1.649l8.119-1.467-2.616-1.379-.733-1z" class="prefix__cls-23" data-name="Path 4395" transform="translate(-1669.973 -704.854)"/>
                                <path id="prefix__Path_4396" d="M1675.661 707.445c1.665.78 3.3.042 4.421 1.01a1.654 1.654 0 0 1 .431 2.321c-1.634.772-6.62 2.16-10.352 1.328-1.117-.255-.364-3.524.323-4.156l.754-.479c-.406.473-.76.891-.03 1.38a5.487 5.487 0 0 0 4.4-.383c.031-.392-.308-.671.053-1.021z" class="prefix__cls-2" data-name="Path 4396" transform="translate(-1669.591 -706.085)"/>
                            </g>
                            <path id="prefix__Path_4397" d="M1680.513 712.629c-1.637.755-6.613 2.144-10.345 1.311-.619-.139-.677-1.226-.466-2.28a2.35 2.35 0 0 0 .317.187c.139.08.259.137.379.194a8.9 8.9 0 0 0 1.415.552 4.832 4.832 0 0 0 3.145-.085 9.683 9.683 0 0 1 .981-.41 5.721 5.721 0 0 1 1.5-.115 8.745 8.745 0 0 0 2.1-.361 6.024 6.024 0 0 1 1.115-.289c.042.005.086-.01.127-.005a1.414 1.414 0 0 1-.268 1.301z" class="prefix__cls-24" data-name="Path 4397" transform="translate(-1669.591 -707.93)"/>
                        </g>
                        <g id="prefix__Group_1598" data-name="Group 1598" transform="translate(0 105.754)">
                            <g id="prefix__Group_1597" data-name="Group 1597">
                                <path id="prefix__Path_4398" d="M1628.143 705.593l-.466 1.551c-.477.166-.53.365-.828.828a3.425 3.425 0 0 0-.592 1.585l8.242-.379-2.41-1.713-.594-1.087z" class="prefix__cls-23" data-name="Path 4398" transform="translate(-1625.723 -705.593)"/>
                                <path id="prefix__Path_4399" d="M1631.739 708.737c1.547.993 3.262.478 4.248 1.586a1.654 1.654 0 0 1 .121 2.357c-1.722.549-6.848 1.265-10.437-.053-1.073-.4.106-3.541.87-4.077l.81-.374c-.465.415-.872.782-.212 1.364a5.485 5.485 0 0 0 4.408.2c.087-.383-.217-.705.192-1.003z" class="prefix__cls-2" data-name="Path 4399" transform="translate(-1625.24 -706.82)"/>
                            </g>
                            <path id="prefix__Path_4400" d="M1636.11 714.61c-1.723.532-6.839 1.25-10.428-.07-.595-.219-.51-1.3-.16-2.322a2.374 2.374 0 0 0 .289.227c.127.1.238.171.35.242a8.917 8.917 0 0 0 1.33.735 4.833 4.833 0 0 0 3.128.332 9.658 9.658 0 0 1 1.027-.278 5.712 5.712 0 0 1 1.5.084 8.763 8.763 0 0 0 2.127-.08 6 6 0 0 1 1.144-.139c.041.01.086 0 .127.012a1.415 1.415 0 0 1-.434 1.257z" class="prefix__cls-24" data-name="Path 4400" transform="translate(-1625.243 -708.742)"/>
                        </g>
                        <path id="prefix__Path_4401" d="M1627.151 654.5c1.685 1.247 4.254 1.479 6.739 1.588 3.2-7.26 10.816-25.7 10.642-29.549.869-3.4-1.332-14.438-2.1-20.924l-.488-7.119-7.91.02c-2.548 8.214.226 20.411 1.3 25.883z" class="prefix__cls-25" data-name="Path 4401" transform="translate(-1626.148 -548.948)"/>
                        <path id="prefix__Path_4402" d="M1653.013 598.876c-.031 7.262 3 22.87 7.045 27.959l1.762 28.5c2.4-.132 4.9.1 6.3-1.122.089-9.821 1.917-21.069 1.6-28.823-.068-6.312-3.443-18.247-5.7-26.693z" class="prefix__cls-25" data-name="Path 4402" transform="translate(-1638.438 -549.043)"/>
                        <path id="prefix__Path_4403" d="M1638.794 569.491c4.148 3.77 9.948 2.29 16.565.784v-.014c.5-.1 1.712-.7 2.228-.84 1.593-4.2 1.7-10.41 2.138-18.324v-.042c.2-3.346.324-6.913.4-10.6a35.284 35.284 0 0 0-14.8-5.979c-6.413 3.324-6.888 22.79-6.531 35.015z" class="prefix__cls-26" data-name="Path 4403" transform="translate(-1631.639 -518.523)"/>
                        <path id="prefix__Path_4404" d="M1664.2 533.306a7.3 7.3 0 0 1-5.434-1.891 25.3 25.3 0 0 0 2.689-5.219l3.627 1.149c-.56 2.344-1.077 4.63-.882 5.961z" class="prefix__cls-23" data-name="Path 4404" transform="translate(-1641.172 -514.589)"/>
                        <path id="prefix__Path_4405" d="M1664.566 531.879c-.084.42-.168.841-.231 1.24a.19.19 0 0 1-.105.021c-.42.021-.714.3-1.093.152-.378-.168-.661-.429-1.061-.282-.231.1-.621-.017-.79.172a4.241 4.241 0 0 1-1.556 1.241 5.728 5.728 0 0 1-.946-.757 12.241 12.241 0 0 0 1.556-2.712 5.994 5.994 0 0 1 .609.063 23.515 23.515 0 0 1 3.553.841c.022 0 .043.021.064.021z" class="prefix__cls-24" data-name="Path 4405" transform="translate(-1641.18 -516.85)"/>
                        <path id="prefix__Path_4406" d="M1665.208 521.01c-.689 1.691-4.131 1.957-7.427.7-.94-.362-2.082-2.737-3.385-4.994l3.2-7.676 6.108.333c2.566 3.502 2.816 7.427 1.504 11.637z" class="prefix__cls-23" data-name="Path 4406" transform="translate(-1639.095 -506.437)"/>
                        <path id="prefix__Path_4407" d="M1666.3 516.328a6.4 6.4 0 0 1-1.892 1.072c-1.493.568-3.154.547-4.668 1.03a6.072 6.072 0 0 1-1.682.463 4.368 4.368 0 0 1-2.208-.82 1.327 1.327 0 0 1-.483-.42.865.865 0 0 1-.105-.4l1.6-3.785a6.534 6.534 0 0 1 .778-.357 12.847 12.847 0 0 1 3.68-.589 9.234 9.234 0 0 1 4.079.694 11 11 0 0 1 .901 3.112z" class="prefix__cls-24" data-name="Path 4407" transform="translate(-1639.505 -508.09)"/>
                        <path id="prefix__Path_4408" d="M1665.184 509.05c.878 2.376-2.1 4.066-3.376 4.292a1.776 1.776 0 0 0-1.355 2.523l-.407.286s-.293-1.78-.911-1.32-1.128.6-.583 1.865.719 3.274-1.334 3.582-2.279-1.734-3.041-2.333a2.507 2.507 0 0 1-.67-3.085 3.776 3.776 0 0 0 .417-3.225c-.319-.994.346-3.533 1.285-3.792a7.979 7.979 0 0 0 2.461-.751c1.168-.616 1.4-1.508 3.214-.817 2.063.789 4.246.678 4.3 2.775z" class="prefix__cls-2" data-name="Path 4408" transform="translate(-1638.532 -505.003)"/>
                        <path id="prefix__Path_4409" d="M1719.109 522.266l2.723 1.372.576-1.468a5.312 5.312 0 0 0 1.161-1.062c.153-.775.789-1.758.652-2.524-.2-.43.576-1.674-.075-2.251a2.674 2.674 0 0 0-2.2-.844 2.537 2.537 0 0 0-1.525.5c-.579.923.015.806-.307 2.036a2.6 2.6 0 0 0-.755-1.035.665.665 0 0 0-.622.549 15.426 15.426 0 0 0 .667 3.886z" class="prefix__cls-23" data-name="Path 4409" transform="translate(-1669.669 -509.5)"/>
                        <g id="prefix__Group_1599" data-name="Group 1599" transform="translate(27.317 12.422)">
                            <path id="prefix__Path_4410" d="M1713.372 529.464c-2.565 4.184-5.777 9.551-8.469 12.81-.021-.042-.8-.316-.272-.232l-3.29-4.047-.411-.42 9.863-9.825a7.018 7.018 0 0 0 2.579 1.714z" class="prefix__cls-23" data-name="Path 4410" transform="translate(-1688.525 -527.748)"/>
                            <path id="prefix__Path_4411" d="M1694.007 550.776c-.5.61-1.009 1.157-1.493 1.661a15.391 15.391 0 0 1-2.1 1.787c-3.406 1.955-8.158 1.6-13.12 2.249l1.177-10.681 8.852 2.208.673-.652 1.7-1.661.02.021 4.205 4.941a.454.454 0 0 1 .086.127z" class="prefix__cls-26" data-name="Path 4411" transform="translate(-1677.292 -536.273)"/>
                            <path id="prefix__Path_4412" d="M1703.16 551.219l-.652.883a.576.576 0 0 1-.778.168.937.937 0 0 1-.147-.126l-4.373-4.962-.378-.442a.59.59 0 0 1 .252-.946l1.2-.421a.588.588 0 0 1 .631.148l.02.021 4.205 4.941a.454.454 0 0 1 .084.126.587.587 0 0 1-.064.61z" class="prefix__cls-27" data-name="Path 4412" transform="translate(-1686.508 -536.106)"/>
                        </g>
                        <path id="prefix__Path_4413" d="M1664.65 510.823c-4.6 2.04-10.092 4.163-12.636 3.511-2.544-.631-1.787-9.441 5.446-10.2 3.784-.378 6.391 1.115 7.569 2.818 5.004-.752 2.502 2.715-.379 3.871z" class="prefix__cls-27" data-name="Path 4413" transform="translate(-1637.333 -504.078)"/>
                        <path id="prefix__Path_4414" d="M1677.626 560.36a9.421 9.421 0 0 1-1.073.841c-3.216 1.85-7.653 1.619-12.342 2.166v.021c-.442 7.927-.547 14.129-2.145 18.334-.525.147-1.724.736-2.229.841v.021c-4.331.967-8.326 1.955-11.711 1.451a41.392 41.392 0 0 1 3.932-1.367 24.377 24.377 0 0 0 5.887-2.144 6.04 6.04 0 0 0 3.174-5.067 24.6 24.6 0 0 0-.946-3.806 14.52 14.52 0 0 1 .063-4.268 10.323 10.323 0 0 0-.147-4.247 3.871 3.871 0 0 0-2.943-2.775l6.518 1.072h.042a5.678 5.678 0 0 0 .589.084 31.229 31.229 0 0 0 4.836.547 18.564 18.564 0 0 0 6.833-1.178 4.955 4.955 0 0 1 1.662-.526z" class="prefix__cls-24" data-name="Path 4414" transform="translate(-1636.116 -530.823)"/>
                    </g>
                    <g id="prefix__Group_1601" data-name="Group 1601" transform="translate(5.464 15.932)">
                        <path id="prefix__Path_4415" d="M1658.481 540.157s-3.441 4.508.327 12.031c0 0-.3 16.665-2.853 19.509 0 0-14.688 5.725-20.136-.47-.639-2.115.214-36.753 8.405-36.791 1.793.03 3.344-.1 3.244.378s-.828 1.421.276 1.908 5.667 2.374 6.7.839c.385-.54 4.412 1.663 4.037 2.596z" class="prefix__cls-27" data-name="Path 4415" transform="translate(-1635.651 -534.436)"/>
                        <path id="prefix__Path_4416" d="M1651.112 544.433l6.219 1.359s-.311 1.638-.714 1.609-6.227-1.255-6.227-1.255z" class="prefix__cls-2" data-name="Path 4416" transform="translate(-1642.656 -539.187)"/>
                    </g>
                </g>
            </g>
            <g id="prefix__Group_1616" data-name="Group 1616">
                <g id="prefix__Group_1612" data-name="Group 1612" transform="translate(26.849)">
                    <g id="prefix__Group_1608" data-name="Group 1608" transform="translate(71.212)">
                        <g id="prefix__Group_1604" data-name="Group 1604" transform="translate(0 13.297)">
                            <path id="prefix__Path_4417" d="M1188.229 396.857a1.277 1.277 0 0 1-1.276-1.277v-6.808a1.277 1.277 0 1 1 2.553 0v6.808a1.277 1.277 0 0 1-1.277 1.277z" class="prefix__cls-25" data-name="Path 4417" transform="translate(-1186.953 -387.496)"/>
                        </g>
                        <g id="prefix__Group_1605" data-name="Group 1605" transform="translate(.108)">
                            <path id="prefix__Path_4418" d="M1188.437 368.389a1.278 1.278 0 0 1-1.248-1.549 5.973 5.973 0 0 1 2.121-3.394 1.277 1.277 0 0 1 1.586 2 3.411 3.411 0 0 0-1.213 1.938 1.276 1.276 0 0 1-1.246 1.005zm23.894-3.677h-9.625a1.277 1.277 0 0 1 0-2.553h9.625a1.277 1.277 0 0 1 0 2.553z" class="prefix__cls-25" data-name="Path 4418" transform="translate(-1187.159 -362.159)"/>
                        </g>
                        <g id="prefix__Group_1606" data-name="Group 1606" transform="translate(27.222)">
                            <path id="prefix__Path_4419" d="M1264.919 546.023h-5.511a5.961 5.961 0 0 1-4.586-2.157 1.276 1.276 0 0 1 1.965-1.628 3.418 3.418 0 0 0 2.624 1.233h5.508a1.276 1.276 0 1 1 0 2.553zm-10.192-14.271a1.277 1.277 0 0 1-1.276-1.276v-3.208a1.277 1.277 0 0 1 2.553 0v3.208a1.277 1.277 0 0 1-1.277 1.276zm0-12.834a1.277 1.277 0 0 1-1.276-1.277V504.81a1.277 1.277 0 0 1 2.553 0v12.831a1.277 1.277 0 0 1-1.277 1.277zm0-16.039a1.277 1.277 0 0 1-1.276-1.277v-9.627a1.277 1.277 0 0 1 2.553 0v9.625a1.277 1.277 0 0 1-1.277 1.279zm0-22.459a1.277 1.277 0 0 1-1.276-1.276v-3.208a1.277 1.277 0 1 1 2.553 0v3.208a1.277 1.277 0 0 1-1.277 1.276zm0-12.834a1.277 1.277 0 0 1-1.276-1.277v-12.831a1.277 1.277 0 0 1 2.553 0v12.831a1.277 1.277 0 0 1-1.277 1.277zm0-16.039a1.277 1.277 0 0 1-1.276-1.276v-9.624a1.277 1.277 0 1 1 2.553 0v9.624a1.277 1.277 0 0 1-1.277 1.276zm0-22.458a1.277 1.277 0 0 1-1.276-1.277V424.6a1.277 1.277 0 1 1 2.553 0v3.208a1.277 1.277 0 0 1-1.277 1.281zm0-12.833a1.277 1.277 0 0 1-1.276-1.276v-12.833a1.277 1.277 0 0 1 2.553 0v12.832a1.277 1.277 0 0 1-1.277 1.276zm0-16.041a1.277 1.277 0 0 1-1.276-1.276v-9.624a1.277 1.277 0 0 1 2.553 0v9.624a1.277 1.277 0 0 1-1.277 1.275zm0-22.456a1.277 1.277 0 0 1-1.276-1.277v-3.208a1.277 1.277 0 0 1 2.553 0v3.208a1.277 1.277 0 0 1-1.277 1.276zm-1.974-12.183a1.267 1.267 0 0 1-.738-.236 3.373 3.373 0 0 0-1.968-.627h-9.947a1.277 1.277 0 1 1 0-2.553h9.946a5.921 5.921 0 0 1 3.447 1.1 1.276 1.276 0 0 1-.741 2.317z" class="prefix__cls-25" data-name="Path 4419" transform="translate(-1238.824 -362.159)"/>
                        </g>
                        <g id="prefix__Group_1607" data-name="Group 1607" transform="translate(55.274 181.312)">
                            <path id="prefix__Path_4420" d="M1300.364 710.2h-6.808a1.276 1.276 0 1 1 0-2.553h6.808a1.276 1.276 0 1 1 0 2.553z" class="prefix__cls-25" data-name="Path 4420" transform="translate(-1292.279 -707.65)"/>
                        </g>
                    </g>
                    <g id="prefix__Group_1609" data-name="Group 1609" transform="translate(0 36.167)">
                        <path id="prefix__Path_4421" d="M1052.533 473.822a1.277 1.277 0 0 1-1.276-1.277v-13.616a1.277 1.277 0 0 1 2.553 0v13.616a1.277 1.277 0 0 1-1.277 1.277zm0-23.828a1.277 1.277 0 0 1-1.276-1.277v-3.4a1.277 1.277 0 0 1 2.553 0v3.4a1.277 1.277 0 0 1-1.277 1.277zm5.5-15a1.277 1.277 0 0 1-.627-2.39 12.006 12.006 0 0 1 5.864-1.529h4.73a1.277 1.277 0 0 1 0 2.553h-4.727a10.729 10.729 0 0 0-4.624 1.2 1.285 1.285 0 0 1-.619.172zm38.775-1.366h-1.569a1.277 1.277 0 0 1 0-2.553h1.569a1.277 1.277 0 1 1 0 2.553zm-11.781 0h-13.616a1.277 1.277 0 0 1 0-2.553h13.616a1.277 1.277 0 1 1 0 2.553z" class="prefix__cls-25" data-name="Path 4421" transform="translate(-1051.257 -431.076)"/>
                    </g>
                    <g id="prefix__Group_1610" data-name="Group 1610" transform="translate(16.827 154.797)">
                        <path id="prefix__Path_4422" d="M1185.989 699.052h-3.4a1.276 1.276 0 1 1 0-2.553h3.4a1.276 1.276 0 1 1 0 2.553zm-13.616 0h-13.616a1.276 1.276 0 1 1 0-2.553h13.616a1.276 1.276 0 1 1 0 2.553zm-17.02 0h-10.211a1.276 1.276 0 1 1 0-2.553h10.211a1.276 1.276 0 1 1 0 2.553zm-23.828 0h-3.4a1.276 1.276 0 1 1 0-2.553h3.4a1.276 1.276 0 1 1 0 2.553zm-13.616 0h-13.616a1.276 1.276 0 1 1 0-2.553h13.616a1.276 1.276 0 1 1 0 2.553zm-17.02 0h-5.548a11.91 11.91 0 0 1-5.056-1.114 1.276 1.276 0 1 1 1.078-2.313 9.4 9.4 0 0 0 3.979.874h5.548a1.276 1.276 0 0 1 0 2.553zm-16.292-12.14a1.277 1.277 0 0 1-1.276-1.277v-3.4a1.277 1.277 0 0 1 2.553 0v3.4a1.277 1.277 0 0 1-1.274 1.277zm0-13.616a1.276 1.276 0 0 1-1.276-1.276V658.4a1.277 1.277 0 1 1 2.553 0v13.62a1.277 1.277 0 0 1-1.274 1.28z" class="prefix__cls-25" data-name="Path 4422" transform="translate(-1083.321 -657.127)"/>
                    </g>
                    <g id="prefix__Group_1611" data-name="Group 1611" transform="translate(28.126 129.138)">
                        <path id="prefix__Path_4423" d="M1149.169 622.913h-3.4a1.276 1.276 0 0 1 0-2.553h3.4a1.276 1.276 0 0 1 0 2.553zm-17.02 0h-10.212a1.276 1.276 0 1 1 0-2.553h10.212a1.276 1.276 0 1 1 0 2.553zm-13.616 0h-12.406a1.276 1.276 0 1 1 0-2.553h12.406a1.276 1.276 0 0 1 0 2.553zm40.7-.987a1.276 1.276 0 0 1-.537-2.433 9.51 9.51 0 0 0 5.5-8.6v-1.383a1.277 1.277 0 1 1 2.553 0v1.383a12.066 12.066 0 0 1-6.978 10.913 1.244 1.244 0 0 1-.535.119z" class="prefix__cls-25" data-name="Path 4423" transform="translate(-1104.851 -608.233)"/>
                    </g>
                </g>
                <g id="prefix__Group_1613" data-name="Group 1613" transform="translate(71.212 21.381)">
                    <rect id="prefix__Rectangle_2544" width="56.251" height="88.833" class="prefix__cls-26" data-name="Rectangle 2544" rx="11.867" transform="translate(0 10.709)"/>
                    <rect id="prefix__Rectangle_2545" width="28.003" height="5.136" class="prefix__cls-28" data-name="Rectangle 2545" rx="2.568" transform="translate(14.124 28.3)"/>
                    <rect id="prefix__Rectangle_2546" width="28.003" height="5.136" class="prefix__cls-28" data-name="Rectangle 2546" rx="2.568" transform="translate(14.124 40.773)"/>
                    <rect id="prefix__Rectangle_2547" width="28.003" height="5.136" class="prefix__cls-28" data-name="Rectangle 2547" rx="2.568" transform="translate(14.124 78.192)"/>
                    <rect id="prefix__Rectangle_2548" width="37.908" height="5.136" class="prefix__cls-28" data-name="Rectangle 2548" rx="2.568" transform="translate(9.171 53.246)"/>
                    <rect id="prefix__Rectangle_2549" width="37.908" height="5.136" class="prefix__cls-28" data-name="Rectangle 2549" rx="2.568" transform="translate(9.171 65.719)"/>
                    <path id="prefix__Path_4424" d="M1190.057 404.91c0-1.11-3.185-2.01-7.112-2.01s-7.113.9-7.113 2.01c0 .654 1.124 1.23 2.837 1.6v.014c-.96.318-1.56.739-1.56 1.205s.6.887 1.56 1.205v4.677h8.551v-4.677c.96-.318 1.56-.739 1.56-1.205s-.6-.887-1.56-1.205v-.014c1.713-.37 2.837-.946 2.837-1.6z" class="prefix__cls-28" data-name="Path 4424" transform="translate(-1154.819 -402.9)"/>
                    <path id="prefix__Rectangle_2550" d="M0 0h8.226v5.378a4.113 4.113 0 0 1-4.113 4.113A4.113 4.113 0 0 1 0 5.378V0z" class="prefix__cls-28" data-name="Rectangle 2550" transform="translate(40.911 99.543)"/>
                    <path id="prefix__Path_4425" d="M1192.035 429.554v76.351a6.21 6.21 0 0 1-6.229 6.229h-43.775a6.21 6.21 0 0 1-6.229-6.229v-.171a17.477 17.477 0 0 1 4.221-.2c12.663.409 25.6.068 37.648-3.813a13.875 13.875 0 0 0 5.106-2.553c3.336-2.894 3.608-7.9 3.608-12.323 0-12.7-.272-25.427-.749-38.124q-.357-9.549-.919-19.063c-.034-1.089-.647-4.119-.681-6.331h1.77a6.232 6.232 0 0 1 6.229 6.227z" class="prefix__cls-24" data-name="Path 4425" transform="translate(-1135.796 -412.606)"/>
                </g>
                <g id="prefix__Group_1614" data-name="Group 1614" transform="translate(0 77.638)">
                    <rect id="prefix__Rectangle_2551" width="56.251" height="58.258" class="prefix__cls-26" data-name="Rectangle 2551" rx="9.61" transform="translate(0 10.688)"/>
                    <rect id="prefix__Rectangle_2552" width="28.003" height="5.136" class="prefix__cls-28" data-name="Rectangle 2552" rx="2.568" transform="translate(14.124 18.046)"/>
                    <rect id="prefix__Rectangle_2553" width="28.003" height="5.136" class="prefix__cls-28" data-name="Rectangle 2553" rx="2.568" transform="translate(14.124 30.519)"/>
                    <rect id="prefix__Rectangle_2554" width="37.908" height="5.136" class="prefix__cls-28" data-name="Rectangle 2554" rx="2.568" transform="translate(9.171 42.992)"/>
                    <rect id="prefix__Rectangle_2555" width="37.908" height="5.136" class="prefix__cls-28" data-name="Rectangle 2555" rx="2.568" transform="translate(9.171 55.465)"/>
                    <path id="prefix__Path_4426" d="M1054.36 512.109c0-1.11-3.184-2.01-7.112-2.01s-7.113.9-7.113 2.01c0 .654 1.124 1.23 2.837 1.6v.014c-.96.318-1.56.739-1.56 1.205s.6.887 1.56 1.205v4.677h8.552v-4.68c.96-.317 1.56-.738 1.56-1.2s-.6-.887-1.56-1.205v-.014c1.713-.372 2.836-.948 2.836-1.602z" class="prefix__cls-28" data-name="Path 4426" transform="translate(-1019.123 -510.099)"/>
                    <path id="prefix__Rectangle_2556" d="M0 0h8.226v5.378a4.113 4.113 0 0 1-4.113 4.113A4.113 4.113 0 0 1 0 5.378V0z" class="prefix__cls-28" data-name="Rectangle 2556" transform="translate(41.477 68.946)"/>
                    <path id="prefix__Path_4427" d="M1056.342 535.516v48.166a5.027 5.027 0 0 1-5.038 5.038h-46.158a5.026 5.026 0 0 1-5.038-5.038v-1.122c14.773-2.383 30.228 1.055 44.728-2.757 2.587-.681 5.276-1.7 6.842-3.846 1.736-2.315 1.8-5.413 1.838-8.272.1-10.654.171-21.343-1.464-31.9-.17-1.089-.885-3.2-1.4-5.31h.646a5.027 5.027 0 0 1 5.044 5.041z" class="prefix__cls-24" data-name="Path 4427" transform="translate(-1000.101 -519.784)"/>
                </g>
                <g id="prefix__Group_1615" data-name="Group 1615" transform="translate(6.045 146.584)">
                    <path id="prefix__Path_4428" d="M1043.826 892.18a21.464 21.464 0 0 1-21.439-21.437V794.25a8.055 8.055 0 0 0 5.384-7.584v-32.653a8.056 8.056 0 0 0-5.384-7.584V641.48H1017v104.949a8.055 8.055 0 0 0-5.385 7.584v32.653a8.054 8.054 0 0 0 5.385 7.584v76.493a26.856 26.856 0 0 0 26.827 26.825h13.373v-5.388z" class="prefix__cls-25" data-name="Path 4428" transform="translate(-1011.614 -641.478)"/>
                    <path id="prefix__Rectangle_2557" d="M0 0h8.756v5.381a4.378 4.378 0 0 1-4.378 4.377A4.378 4.378 0 0 1 0 5.381V0z" class="prefix__cls-28" data-name="Rectangle 2557" transform="translate(3.701)"/>
                </g>
            </g>
            <g id="prefix__Group_1638" data-name="Group 1638" transform="translate(138.897 60.661)">
                <g id="prefix__Group_1628" data-name="Group 1628">
                    <g id="prefix__Group_1617" data-name="Group 1617">
                        <rect id="prefix__Rectangle_2558" width="40.271" height="29.574" class="prefix__cls-29" data-name="Rectangle 2558" rx="3.861"/>
                    </g>
                    <g id="prefix__Group_1618" data-name="Group 1618" transform="translate(2.877 2.112)">
                        <rect id="prefix__Rectangle_2559" width="27.92" height="25.349" class="prefix__cls-2" data-name="Rectangle 2559" rx="1.887"/>
                    </g>
                    <g id="prefix__Group_1621" data-name="Group 1621" transform="translate(15.973 4.676)">
                        <g id="prefix__Group_1619" data-name="Group 1619" transform="translate(.927 11.17)">
                            <path id="prefix__Path_4429" d="M1296.967 518.055l9.025-10.111h-4.744z" class="prefix__cls-25" data-name="Path 4429" transform="translate(-1296.967 -507.944)"/>
                        </g>
                        <g id="prefix__Group_1620" data-name="Group 1620">
                            <path id="prefix__Path_4430" d="M1295.2 497.829h5.207l4.744-11.17z" class="prefix__cls-25" data-name="Path 4430" transform="translate(-1295.202 -486.659)"/>
                        </g>
                    </g>
                    <g id="prefix__Group_1622" data-name="Group 1622" transform="translate(5.166 4.604)">
                        <path id="prefix__Path_4431" d="M1285.875 490.838c-.731 0-.947-.956-1.195-2.063a8.242 8.242 0 0 0-.352-1.272 8.02 8.02 0 0 0-.354 1.274c-.249 1.105-.463 2.061-1.195 2.061s-.946-.956-1.193-2.063a8.277 8.277 0 0 0-.351-1.269 8.564 8.564 0 0 0-.349 1.269c-.248 1.107-.46 2.063-1.191 2.063s-.943-.956-1.188-2.063a8.4 8.4 0 0 0-.346-1.264 8.373 8.373 0 0 0-.345 1.262c-.246 1.107-.46 2.065-1.19 2.065s-.944-.956-1.19-2.063a4.811 4.811 0 0 0-.442-1.417.381.381 0 0 1-.384-.418.462.462 0 0 1 .479-.416c.73 0 .944.956 1.19 2.063a8.6 8.6 0 0 0 .347 1.266 8.522 8.522 0 0 0 .347-1.266c.246-1.107.459-2.063 1.188-2.063s.942.956 1.188 2.063a8.181 8.181 0 0 0 .347 1.266 8.567 8.567 0 0 0 .347-1.266c.248-1.107.46-2.063 1.191-2.063s.946.956 1.193 2.063a8.326 8.326 0 0 0 .351 1.271 8.189 8.189 0 0 0 .352-1.269c.25-1.107.464-2.065 1.2-2.065s.947.956 1.195 2.063a4.723 4.723 0 0 0 .445 1.416.384.384 0 0 1 .386.418.463.463 0 0 1-.481.417z" class="prefix__cls-25" data-name="Path 4431" transform="translate(-1274.609 -486.523)"/>
                    </g>
                    <g id="prefix__Group_1623" data-name="Group 1623" transform="translate(5.217 10.781)">
                        <path id="prefix__Path_4432" d="M1283.836 499.156h-.069a.428.428 0 0 1-.431-.431.439.439 0 0 1 .431-.432h.069a.438.438 0 0 1 .431.432.427.427 0 0 1-.431.431zm-1.795 0h-1.726a.428.428 0 0 1-.431-.431.439.439 0 0 1 .431-.432h1.726a.451.451 0 0 1 .431.432.439.439 0 0 1-.431.431zm-3.452 0h-1.726a.428.428 0 0 1-.431-.431.439.439 0 0 1 .431-.432h1.726a.451.451 0 0 1 .431.432.439.439 0 0 1-.431.431zm-3.452 0a.428.428 0 0 1-.431-.431.431.431 0 1 1 .863 0 .427.427 0 0 1-.432.431z" class="prefix__cls-25" data-name="Path 4432" transform="translate(-1274.706 -498.293)"/>
                    </g>
                    <g id="prefix__Group_1624" data-name="Group 1624" transform="translate(32.001 4.459)">
                        <circle id="prefix__Ellipse_199" cx="1.762" cy="1.762" r="1.762" class="prefix__cls-30" data-name="Ellipse 199"/>
                    </g>
                    <g id="prefix__Group_1625" data-name="Group 1625" transform="translate(32.001 9.458)">
                        <circle id="prefix__Ellipse_200" cx="1.762" cy="1.762" r="1.762" class="prefix__cls-30" data-name="Ellipse 200"/>
                    </g>
                    <g id="prefix__Group_1626" data-name="Group 1626" transform="translate(32.001 14.457)">
                        <circle id="prefix__Ellipse_201" cx="1.762" cy="1.762" r="1.762" class="prefix__cls-30" data-name="Ellipse 201"/>
                    </g>
                    <g id="prefix__Group_1627" data-name="Group 1627" transform="translate(32.909 20.675)">
                        <rect id="prefix__Rectangle_2560" width="5.232" height="2.805" class="prefix__cls-30" data-name="Rectangle 2560" rx="1.402"/>
                    </g>
                </g>
                <g id="prefix__Group_1637" data-name="Group 1637" transform="translate(33.03 13.764)">
                    <g id="prefix__Group_1636" data-name="Group 1636">
                        <g id="prefix__Group_1634" data-name="Group 1634">
                            <g id="prefix__Group_1630" data-name="Group 1630" transform="translate(20.26 105.53)">
                                <g id="prefix__Group_1629" data-name="Group 1629" transform="translate(.003)">
                                    <path id="prefix__Path_4433" d="M1378.233 705.065l.257 1.6c.452.228.478.432.713.932a3.437 3.437 0 0 1 .377 1.653l-8.132-1.469 2.62-1.381.734-1z" class="prefix__cls-23" data-name="Path 4433" transform="translate(-1368.754 -705.065)"/>
                                    <path id="prefix__Path_4434" d="M1371.49 707.66c-1.668.781-3.3.042-4.428 1.012a1.657 1.657 0 0 0-.432 2.324c1.637.773 6.63 2.164 10.368 1.33 1.118-.256.364-3.53-.323-4.162l-.755-.479c.407.474.761.892.03 1.382a5.494 5.494 0 0 1-4.4-.384c-.038-.393.306-.673-.06-1.023z" class="prefix__cls-2" data-name="Path 4434" transform="translate(-1366.315 -706.298)"/>
                                </g>
                                <path id="prefix__Path_4435" d="M1366.627 712.852c1.64.756 6.623 2.147 10.361 1.313.62-.139.679-1.227.466-2.284a2.262 2.262 0 0 1-.316.187c-.139.081-.259.137-.379.195a8.938 8.938 0 0 1-1.418.553 4.839 4.839 0 0 1-3.15-.086 9.712 9.712 0 0 0-.983-.411 5.738 5.738 0 0 0-1.5-.115 8.751 8.751 0 0 1-2.1-.361 6 6 0 0 0-1.117-.289c-.042 0-.086-.011-.128-.006a1.418 1.418 0 0 0 .264 1.304z" class="prefix__cls-24" data-name="Path 4435" transform="translate(-1366.309 -708.145)"/>
                            </g>
                            <g id="prefix__Group_1632" data-name="Group 1632" transform="translate(43.499 105.919)">
                                <g id="prefix__Group_1631" data-name="Group 1631" transform="translate(.005)">
                                    <path id="prefix__Path_4436" d="M1421.8 705.805l.468 1.553c.478.166.53.366.829.83a3.425 3.425 0 0 1 .592 1.588l-8.254-.38 2.414-1.716.595-1.089z" class="prefix__cls-23" data-name="Path 4436" transform="translate(-1412.897 -705.805)"/>
                                    <path id="prefix__Path_4437" d="M1415.417 708.954c-1.55.995-3.268.479-4.255 1.589a1.657 1.657 0 0 0-.121 2.362c1.725.549 6.858 1.267 10.453-.054 1.075-.4-.106-3.547-.872-4.082l-.811-.375c.466.416.873.784.212 1.366a5.494 5.494 0 0 1-4.415.2c-.085-.385.219-.708-.191-1.006z" class="prefix__cls-2" data-name="Path 4437" transform="translate(-1410.6 -707.034)"/>
                                </g>
                                <path id="prefix__Path_4438" d="M1411.038 714.837c1.726.532 6.849 1.252 10.444-.07.6-.219.51-1.306.16-2.325a2.336 2.336 0 0 1-.289.227c-.127.1-.239.17-.351.242a8.879 8.879 0 0 1-1.332.736 4.842 4.842 0 0 1-3.134.332 9.656 9.656 0 0 0-1.029-.278 5.706 5.706 0 0 0-1.5.084 8.792 8.792 0 0 1-2.131-.08 5.977 5.977 0 0 0-1.145-.139c-.041.011-.087 0-.128.012a1.417 1.417 0 0 0 .435 1.259z" class="prefix__cls-24" data-name="Path 4438" transform="translate(-1410.59 -708.959)"/>
                            </g>
                            <path id="prefix__Path_4439" d="M1414.323 654.636c-1.687 1.25-4.261 1.482-6.749 1.591-3.206-7.271-10.833-25.74-10.659-29.594-.87-3.41 1.334-14.46 2.108-20.957l.489-7.13 7.922.02c2.552 8.227-.226 20.443-1.3 25.923z" class="prefix__cls-25" data-name="Path 4439" transform="translate(-1360.498 -548.916)"/>
                            <path id="prefix__Path_4440" d="M1389.18 598.922c.031 7.273-3 22.907-7.056 28l-1.765 28.545c-2.4-.132-4.905.1-6.311-1.124-.089-9.836-1.92-21.1-1.6-28.867.068-6.321 3.448-18.275 5.707-26.734z" class="prefix__cls-25" data-name="Path 4440" transform="translate(-1348.949 -549.011)"/>
                            <path id="prefix__Path_4441" d="M1399.172 569.49c-4.154 3.776-9.964 2.294-16.59.785v-.014c-.5-.1-1.715-.7-2.231-.842-1.6-4.21-1.7-10.426-2.141-18.353v-.042c-.2-3.351-.325-6.924-.406-10.617a35.344 35.344 0 0 1 14.828-5.988c6.422 3.332 6.898 22.827 6.54 35.071z" class="prefix__cls-26" data-name="Path 4441" transform="translate(-1351.509 -518.443)"/>
                            <path id="prefix__Path_4442" d="M1387.432 533.249a7.307 7.307 0 0 0 5.443-1.893 25.326 25.326 0 0 1-2.693-5.227l-3.633 1.151c.56 2.347 1.079 4.636.883 5.969z" class="prefix__cls-23" data-name="Path 4442" transform="translate(-1355.667 -514.503)"/>
                            <path id="prefix__Path_4443" d="M1387.55 531.82c.084.421.168.842.232 1.243a.189.189 0 0 0 .1.021c.421.021.716.3 1.1.152.379-.168.662-.43 1.062-.282.232.106.622-.017.791.172a4.255 4.255 0 0 0 1.558 1.243 5.757 5.757 0 0 0 .948-.758 12.226 12.226 0 0 1-1.558-2.716 6.006 6.006 0 0 0-.611.063 23.591 23.591 0 0 0-3.559.842c-.02 0-.042.02-.063.02z" class="prefix__cls-24" data-name="Path 4443" transform="translate(-1356.143 -516.768)"/>
                            <path id="prefix__Path_4444" d="M1381.639 520.935c.69 1.693 4.137 1.96 7.438.7.942-.362 2.086-2.741 3.391-5l-3.205-7.688-6.117.334c-2.569 3.506-2.82 7.437-1.507 11.654z" class="prefix__cls-23" data-name="Path 4444" transform="translate(-1352.964 -506.339)"/>
                            <path id="prefix__Path_4445" d="M1381.05 516.245a6.4 6.4 0 0 0 1.9 1.074c1.5.568 3.159.547 4.675 1.032a6.093 6.093 0 0 0 1.685.463 4.384 4.384 0 0 0 2.212-.821 1.334 1.334 0 0 0 .484-.421.872.872 0 0 0 .1-.4l-1.6-3.791a6.432 6.432 0 0 0-.779-.358 12.845 12.845 0 0 0-3.685-.589 9.242 9.242 0 0 0-4.086.695 11.012 11.012 0 0 0-.906 3.116z" class="prefix__cls-24" data-name="Path 4445" transform="translate(-1353.054 -507.994)"/>
                            <path id="prefix__Path_4446" d="M1381.171 508.956c-.88 2.379 2.1 4.072 3.381 4.3a1.779 1.779 0 0 1 1.357 2.527l.408.286s.294-1.783.912-1.322 1.129.6.584 1.868-.721 3.279 1.335 3.588 2.283-1.736 3.047-2.336a2.511 2.511 0 0 0 .671-3.089 3.783 3.783 0 0 1-.417-3.23c.319-1-.347-3.539-1.288-3.8a8 8 0 0 1-2.461-.748c-1.17-.617-1.4-1.51-3.219-.818-2.069.784-4.255.674-4.31 2.774z" class="prefix__cls-2" data-name="Path 4446" transform="translate(-1353.036 -504.903)"/>
                            <path id="prefix__Path_4447" d="M1333.016 522.192l-2.728 1.374-.577-1.47a5.3 5.3 0 0 1-1.163-1.064c-.154-.776-.79-1.76-.653-2.528.2-.431-.577-1.676.076-2.255a2.675 2.675 0 0 1 2.207-.846 2.541 2.541 0 0 1 1.527.5c.58.924-.015.807.307 2.039a2.608 2.608 0 0 1 .756-1.036.665.665 0 0 1 .623.549 15.442 15.442 0 0 1-.667 3.891z" class="prefix__cls-23" data-name="Path 4447" transform="translate(-1327.703 -509.407)"/>
                            <g id="prefix__Group_1633" data-name="Group 1633" transform="translate(2.584 12.441)">
                                <path id="prefix__Path_4448" d="M1332.628 529.4c2.569 4.191 5.786 9.565 8.482 12.83.021-.042.8-.317.272-.233l3.3-4.053.413-.421-9.879-9.84a7.028 7.028 0 0 1-2.588 1.717z" class="prefix__cls-23" data-name="Path 4448" transform="translate(-1332.628 -527.683)"/>
                                <path id="prefix__Path_4449" d="M1348.148 550.747c.505.611 1.011 1.158 1.5 1.664a15.4 15.4 0 0 0 2.106 1.79c3.412 1.958 8.171 1.6 13.14 2.253l-1.179-10.7-8.865 2.211-.674-.653-1.706-1.664-.021.021-4.212 4.948a.448.448 0 0 0-.089.13z" class="prefix__cls-26" data-name="Path 4449" transform="translate(-1340.003 -536.221)"/>
                                <path id="prefix__Path_4450" d="M1348.157 551.19l.653.884a.578.578 0 0 0 .779.168.943.943 0 0 0 .147-.126l4.38-4.97.379-.442a.592.592 0 0 0-.252-.948l-1.2-.421a.587.587 0 0 0-.632.147l-.021.021-4.212 4.948a.448.448 0 0 0-.084.126.589.589 0 0 0 .063.613z" class="prefix__cls-27" data-name="Path 4450" transform="translate(-1339.949 -536.054)"/>
                            </g>
                            <path id="prefix__Path_4451" d="M1377.109 510.732c4.611 2.043 10.108 4.17 12.656 3.517 2.548-.632 1.79-9.455-5.454-10.214-3.791-.379-6.4 1.116-7.581 2.822-5.013-.757-2.507 2.716.379 3.875z" class="prefix__cls-27" data-name="Path 4451" transform="translate(-1349.639 -503.976)"/>
                            <path id="prefix__Path_4452" d="M1352.961 560.345a9.332 9.332 0 0 0 1.074.842c3.222 1.854 7.665 1.622 12.361 2.17v.021c.442 7.939.547 14.151 2.148 18.363.526.147 1.727.737 2.232.842v.021c4.338.969 8.339 1.958 11.73 1.453a41.369 41.369 0 0 0-3.938-1.369 24.443 24.443 0 0 1-5.9-2.148 6.05 6.05 0 0 1-3.18-5.075 24.62 24.62 0 0 1 .947-3.812 14.547 14.547 0 0 0-.063-4.274 10.328 10.328 0 0 1 .147-4.254 3.88 3.88 0 0 1 2.948-2.78c-2.169.358-4.359.716-6.528 1.074h-.042a5.67 5.67 0 0 1-.589.084 31.255 31.255 0 0 1-4.844.548 18.594 18.594 0 0 1-6.844-1.179 4.96 4.96 0 0 0-1.659-.527z" class="prefix__cls-24" data-name="Path 4452" transform="translate(-1339.706 -530.763)"/>
                        </g>
                        <g id="prefix__Group_1635" data-name="Group 1635" transform="translate(26.163 15.957)">
                            <path id="prefix__Path_4453" d="M1377.886 540.111s3.446 4.515-.328 12.05c0 0 .3 16.691 2.857 19.54 0 0 14.711 5.734 20.168-.471.641-2.118-.214-36.81-8.418-36.848-1.8.029-3.35-.1-3.25.378s.829 1.423-.276 1.91-5.676 2.377-6.714.84c-.381-.539-4.414 1.667-4.039 2.601z" class="prefix__cls-27" data-name="Path 4453" transform="translate(-1377.558 -534.382)"/>
                            <path id="prefix__Path_4454" d="M1399.975 544.394l-6.229 1.361s.311 1.641.715 1.612 6.236-1.257 6.236-1.257z" class="prefix__cls-2" data-name="Path 4454" transform="translate(-1385.251 -539.14)"/>
                        </g>
                    </g>
                </g>
            </g>
            <g id="prefix__Group_1665" data-name="Group 1665" transform="translate(51.632 153.336)">
                <path id="prefix__Path_4455" d="M1577 1097.085c1.509 27.48-89.334 60.4-148.173 64.388-79.852 5.388-28.826-28.988-97.848-33.514-69.021-4.472-38.74 15.625-100.057 20.1-61.317 4.526-43.536-39.818-96.555-39.818-31.79 0-43.644-15.248-30.767-26.348 5.55-4.741 15.68-8.783 30.767-10.453 0 0 236.323-38.04 400.552 0 29.47 6.841 41.593 15.947 42.081 25.645z" data-name="Path 4455" transform="translate(-1098.481 -844.515)" style="fill:#8ebddd"/>
                <path id="prefix__Path_4456" d="M1581.631 1097.085c-19.289 24.247-93.053 48.87-143.485 52.265-79.852 5.388-28.826-28.988-97.848-33.514-69.022-4.472-38.687 15.625-100 20.1-61.37 4.526-43.59-39.818-96.555-39.818-20.906 0-33.191-6.573-35.508-14.225 5.55-4.741 15.68-8.783 30.767-10.453 0 0 236.323-38.04 400.552 0 29.468 6.841 41.592 15.947 42.077 25.645z" class="prefix__cls-29" data-name="Path 4456" transform="translate(-1103.114 -844.515)"/>
                <path id="prefix__Path_4457" d="M1532.808 742.34l-321.454-.054-.862 3.772-39.118 173.174 57.707.539 43.7.431 11.638.108 16.272.162 34.861.323 44.56.431h.054l10.937.108 15.841.162 35.023.323 45.691.431 10.184.108 15.14.162 56.575.539 19.182-22.037zm-51.995 76.673a24.63 24.63 0 0 1 21.283 37.016c-.054 0-.054-.054-.108-.054a.728.728 0 0 0 .108-.431c-.054-1.455-3.287-1.994-6.358-2.1-1.4-.054-2.694-.054-3.717 0h-2.155a32.837 32.837 0 0 1-6.035-1.024c-6.466-1.347-11.639 1.347-17.458 2.64a24.2 24.2 0 0 1-4.742-14.494 24.616 24.616 0 0 1 9.968-19.774 25.041 25.041 0 0 1 9.214-1.78zm-106.415 0a24.631 24.631 0 0 1 21.283 37.016c-.054 0-.054-.054-.108-.054a.724.724 0 0 0 .108-.431c-.054-1.455-3.287-1.994-6.358-2.1-1.4-.054-2.694-.054-3.718 0h-2.155a32.851 32.851 0 0 1-6.035-1.024c-6.466-1.347-11.638 1.347-17.457 2.64a24.2 24.2 0 0 1-4.742-14.494 24.615 24.615 0 0 1 9.968-19.774 25.041 25.041 0 0 1 9.216-1.78zm-106.416 0a24.631 24.631 0 0 1 21.284 37.016c-.054 0-.054-.054-.108-.054a.724.724 0 0 0 .108-.431c-.054-1.455-3.287-1.994-6.358-2.1-1.4-.054-2.694-.054-3.718 0h-2.155a32.853 32.853 0 0 1-6.035-1.024c-6.466-1.347-11.638 1.347-17.457 2.64a24.2 24.2 0 0 1-4.742-14.494 24.615 24.615 0 0 1 9.968-19.774 25.042 25.042 0 0 1 9.214-1.78z" data-name="Path 4457" transform="translate(-1133.12 -696.134)" style="fill:#88b2bc"/>
                <path id="prefix__Path_4458" d="M1527.429 749.473h-320.592l-39.98 177h400.552zm-48.762 72.955a24.63 24.63 0 0 1 21.283 37.016c-.054 0-.054-.054-.108-.054a.728.728 0 0 0 .108-.431c-.054-1.455-3.287-1.994-6.358-2.1-1.4-.054-2.694-.054-3.717 0h-2.155a32.842 32.842 0 0 1-6.035-1.024c-6.466-1.347-11.639 1.347-17.458 2.64a24.2 24.2 0 0 1-4.742-14.494 24.616 24.616 0 0 1 9.968-19.774 25.041 25.041 0 0 1 9.214-1.779zm-106.415 0a24.631 24.631 0 0 1 21.283 37.016c-.054 0-.054-.054-.108-.054a.724.724 0 0 0 .108-.431c-.054-1.455-3.287-1.994-6.358-2.1-1.4-.054-2.694-.054-3.718 0h-2.159a32.856 32.856 0 0 1-6.035-1.024c-6.466-1.347-11.638 1.347-17.457 2.64a24.2 24.2 0 0 1-4.742-14.494 24.615 24.615 0 0 1 9.968-19.774 25.041 25.041 0 0 1 9.218-1.779zm-106.416 0a24.631 24.631 0 0 1 21.284 37.016c-.054 0-.054-.054-.108-.054a.724.724 0 0 0 .108-.431c-.054-1.455-3.287-1.994-6.358-2.1-1.4-.054-2.694-.054-3.718 0h-2.155a32.858 32.858 0 0 1-6.035-1.024c-6.466-1.347-11.638 1.347-17.457 2.64a24.2 24.2 0 0 1-4.742-14.494 24.615 24.615 0 0 1 9.968-19.774 25.042 25.042 0 0 1 9.213-1.779z" class="prefix__cls-26" data-name="Path 4458" transform="translate(-1130.974 -699.549)"/>
                <g id="prefix__Group_1651" data-name="Group 1651" transform="translate(75.863)">
                    <g id="prefix__Group_1639" data-name="Group 1639">
                        <path id="prefix__Path_4459" d="M1246.64 654.343l-3.6 3.7 3.6 42.526 22.875 3.7 3.6-3.7v-46.23zm22.242 22.037h-14.525v-17.188h14.525z" class="prefix__cls-33" data-name="Path 4459" transform="translate(-1243.039 -654.343)"/>
                        <path id="prefix__Path_4460" d="M1243.039 661.4v46.23h26.476V661.4zm22.242 22.037h-14.524v-17.186h14.524z" class="prefix__cls-15" data-name="Path 4460" transform="translate(-1243.039 -657.697)"/>
                    </g>
                    <g id="prefix__Group_1640" data-name="Group 1640" transform="translate(26.476)">
                        <path id="prefix__Path_4461" d="M1297.09 654.343l-3.6 3.7 3.6 42.526 22.875 3.7 3.6-3.7v-46.23zm22.242 22.037h-14.524v-17.188h14.524z" class="prefix__cls-33" data-name="Path 4461" transform="translate(-1293.489 -654.343)"/>
                        <path id="prefix__Path_4462" d="M1293.489 661.4v46.23h26.476V661.4zm22.242 22.037h-14.524v-17.186h14.524z" class="prefix__cls-15" data-name="Path 4462" transform="translate(-1293.489 -657.697)"/>
                    </g>
                    <g id="prefix__Group_1641" data-name="Group 1641" transform="translate(52.952)">
                        <path id="prefix__Path_4463" d="M1347.54 654.343l-3.6 3.7 3.6 42.526 22.875 3.7 3.6-3.7v-46.23zm22.242 22.037h-14.524v-17.188h14.524z" class="prefix__cls-33" data-name="Path 4463" transform="translate(-1343.939 -654.343)"/>
                        <path id="prefix__Path_4464" d="M1343.939 661.4v46.23h26.476V661.4zm22.242 22.037h-14.525v-17.186h14.525z" class="prefix__cls-15" data-name="Path 4464" transform="translate(-1343.939 -657.697)"/>
                    </g>
                    <g id="prefix__Group_1642" data-name="Group 1642" transform="translate(79.428)">
                        <path id="prefix__Path_4465" d="M1397.991 654.343l-3.6 3.7 3.6 42.526 22.875 3.7 3.6-3.7v-46.23zm22.242 22.037h-14.525v-17.188h14.525z" class="prefix__cls-33" data-name="Path 4465" transform="translate(-1394.39 -654.343)"/>
                        <path id="prefix__Path_4466" d="M1394.39 661.4v46.23h26.476V661.4zm22.242 22.037h-14.524v-17.186h14.524z" class="prefix__cls-15" data-name="Path 4466" transform="translate(-1394.39 -657.697)"/>
                    </g>
                    <g id="prefix__Group_1643" data-name="Group 1643" transform="translate(105.904)">
                        <path id="prefix__Path_4467" d="M1448.441 654.343l-3.6 3.7 3.6 42.526 22.875 3.7 3.6-3.7v-46.23zm22.242 22.037h-14.524v-17.188h14.524z" class="prefix__cls-33" data-name="Path 4467" transform="translate(-1444.84 -654.343)"/>
                        <path id="prefix__Path_4468" d="M1444.84 661.4v46.23h26.476V661.4zm22.242 22.037h-14.524v-17.186h14.524z" class="prefix__cls-15" data-name="Path 4468" transform="translate(-1444.84 -657.697)"/>
                    </g>
                    <g id="prefix__Group_1644" data-name="Group 1644" transform="translate(132.38)">
                        <path id="prefix__Path_4469" d="M1498.891 654.343l-3.6 3.7 3.6 42.526 22.875 3.7 3.6-3.7v-46.23zm22.242 22.037h-14.524v-17.188h14.524z" class="prefix__cls-33" data-name="Path 4469" transform="translate(-1495.29 -654.343)"/>
                        <path id="prefix__Path_4470" d="M1495.29 661.4v46.23h26.476V661.4zm22.242 22.037h-14.525v-17.186h14.525z" class="prefix__cls-15" data-name="Path 4470" transform="translate(-1495.29 -657.697)"/>
                    </g>
                    <g id="prefix__Group_1645" data-name="Group 1645" transform="translate(158.856)">
                        <path id="prefix__Path_4471" d="M1549.342 654.343l-3.6 3.7 3.6 42.526 22.875 3.7 3.6-3.7v-46.23zm22.242 22.037h-14.525v-17.188h14.525z" class="prefix__cls-33" data-name="Path 4471" transform="translate(-1545.741 -654.343)"/>
                        <path id="prefix__Path_4472" d="M1545.741 661.4v46.23h26.476V661.4zm22.242 22.037h-14.524v-17.186h14.524z" class="prefix__cls-15" data-name="Path 4472" transform="translate(-1545.741 -657.697)"/>
                    </g>
                    <g id="prefix__Group_1646" data-name="Group 1646" transform="translate(185.332)">
                        <path id="prefix__Path_4473" d="M1599.792 654.343l-3.6 3.7 3.6 42.526 22.875 3.7 3.6-3.7v-46.23zm22.242 22.037h-14.524v-17.188h14.524z" class="prefix__cls-33" data-name="Path 4473" transform="translate(-1596.191 -654.343)"/>
                        <path id="prefix__Path_4474" d="M1596.191 661.4v46.23h26.476V661.4zm22.242 22.037h-14.524v-17.186h14.524z" class="prefix__cls-15" data-name="Path 4474" transform="translate(-1596.191 -657.697)"/>
                    </g>
                    <g id="prefix__Group_1647" data-name="Group 1647" transform="translate(211.808)">
                        <path id="prefix__Path_4475" d="M1650.242 654.343l-3.6 3.7 3.6 42.526 22.875 3.7 3.6-3.7v-46.23zm22.242 22.037h-14.524v-17.188h14.524z" class="prefix__cls-33" data-name="Path 4475" transform="translate(-1646.641 -654.343)"/>
                        <path id="prefix__Path_4476" d="M1646.641 661.4v46.23h26.476V661.4zm22.242 22.037h-14.525v-17.186h14.525z" class="prefix__cls-15" data-name="Path 4476" transform="translate(-1646.641 -657.697)"/>
                    </g>
                    <g id="prefix__Group_1648" data-name="Group 1648" transform="translate(238.284)">
                        <path id="prefix__Path_4477" d="M1700.693 654.343l-3.6 3.7 3.6 42.526 22.875 3.7 3.6-3.7v-46.23zm22.242 22.037h-14.525v-17.188h14.525z" class="prefix__cls-33" data-name="Path 4477" transform="translate(-1697.092 -654.343)"/>
                        <path id="prefix__Path_4478" d="M1697.092 661.4v46.23h26.476V661.4zm22.242 22.037h-14.524v-17.186h14.524z" class="prefix__cls-15" data-name="Path 4478" transform="translate(-1697.092 -657.697)"/>
                    </g>
                    <g id="prefix__Group_1649" data-name="Group 1649" transform="translate(264.76)">
                        <path id="prefix__Path_4479" d="M1751.143 654.343l-3.6 3.7 3.6 42.526 22.875 3.7 3.6-3.7v-46.23zm22.242 22.037h-14.524v-17.188h14.524z" class="prefix__cls-33" data-name="Path 4479" transform="translate(-1747.542 -654.343)"/>
                        <path id="prefix__Path_4480" d="M1747.542 661.4v46.23h26.476V661.4zm22.242 22.037h-14.524v-17.186h14.524z" class="prefix__cls-15" data-name="Path 4480" transform="translate(-1747.542 -657.697)"/>
                    </g>
                    <g id="prefix__Group_1650" data-name="Group 1650" transform="translate(291.236)">
                        <path id="prefix__Path_4481" d="M1801.593 654.343l-3.6 3.7 3.6 42.526 25.41 3.7 3.6-3.7v-46.23zm24.776 22.037h-17.059v-17.188h17.059z" class="prefix__cls-33" data-name="Path 4481" transform="translate(-1797.992 -654.343)"/>
                        <path id="prefix__Path_4482" d="M1797.992 661.4v46.23H1827V661.4zm22.242 22.037h-14.524v-17.186h14.525z" class="prefix__cls-15" data-name="Path 4482" transform="translate(-1797.992 -657.697)"/>
                    </g>
                </g>
                <g id="prefix__Group_1664" data-name="Group 1664" transform="translate(95.972 110.43)">
                    <g id="prefix__Group_1655" data-name="Group 1655">
                        <g id="prefix__Group_1654" data-name="Group 1654" transform="translate(4.896)">
                            <g id="prefix__Group_1652" data-name="Group 1652" transform="translate(5.458)">
                                <path id="prefix__Path_4483" d="M1335.068 932.729a33.981 33.981 0 1 1 33.981-33.98 34.022 34.022 0 0 1-33.981 33.98zm0-58.605a24.625 24.625 0 1 0 24.624 24.625 24.654 24.654 0 0 0-24.624-24.625z" class="prefix__cls-33" data-name="Path 4483" transform="translate(-1301.085 -864.768)"/>
                            </g>
                            <g id="prefix__Group_1653" data-name="Group 1653" transform="translate(0 3.119)">
                                <path id="prefix__Path_4484" d="M1324.668 938.672a33.981 33.981 0 1 1 33.981-33.981 34.022 34.022 0 0 1-33.981 33.981zm0-58.605a24.624 24.624 0 1 0 24.625 24.624 24.653 24.653 0 0 0-24.625-24.624z" class="prefix__cls-15" data-name="Path 4484" transform="translate(-1290.685 -870.711)"/>
                            </g>
                        </g>
                        <path id="prefix__Path_4485" d="M1382.012 1020.316a4.762 4.762 0 0 1-.754 3.395h-24.247a27.8 27.8 0 0 1-4.365-4.688 47.3 47.3 0 0 1-6.358-13.308c-3.88-11.8-5.226-24.785-1.347-36.531.862-2.694 1.994-5.335 2.586-8.082a32.193 32.193 0 0 1 1.4-5.981c.808-1.832 2.856-.108 4.9-.054 2.156.054 3.556-1.455 5.658-.808a19.241 19.241 0 0 0 3.017.377c2.371.27 6.2.647 8.136 2.048a39.8 39.8 0 0 1-3.018 4.095 29.821 29.821 0 0 0-3.233 6.412c-.97 2.8-1.886 2.64-1.239 5.55.162.754.808 1.67.7 2.425-.216 1.778-.862 2.209-1.886 3.664-1.724 2.317-1.778 5.5-.97 8.3a29.3 29.3 0 0 0 4.095 7.544l15.356 22.468a8.766 8.766 0 0 1 1.569 3.174z" class="prefix__cls-24" data-name="Path 4485" transform="translate(-1310.469 -907.217)"/>
                        <path id="prefix__Path_4486" d="M1326.713 968.462a5.9 5.9 0 0 0-.539 3.071c.054 17.457 6.466 34.106 11.315 50.918h-56.036c-.215-4.418-.162-8.783 1.131-12.931a4.288 4.288 0 0 1 .323-1.185c2.533-6.95 8.675-12.608 9.429-19.936.323-3.341-.485-6.628-.593-9.968a23.177 23.177 0 0 1 5.281-15.033c2.64-3.233 9-4.635 8.783-8.945 5.819-1.293 10.991-3.987 17.457-2.64a26.308 26.308 0 0 0 7.058 1.024h1.131c1.023-.054 2.317-.054 3.718 0 3.071.108 6.3.647 6.359 2.1 0 1.994-4.58 6.2-6.035 7.436a37.447 37.447 0 0 1-5.55 3.556 8.388 8.388 0 0 0-3.232 2.533z" class="prefix__cls-29" data-name="Path 4486" transform="translate(-1281.356 -905.957)"/>
                    </g>
                    <g id="prefix__Group_1659" data-name="Group 1659" transform="translate(106.415)">
                        <g id="prefix__Group_1658" data-name="Group 1658" transform="translate(4.896)">
                            <g id="prefix__Group_1656" data-name="Group 1656" transform="translate(5.458)">
                                <path id="prefix__Path_4487" d="M1537.843 932.729a33.981 33.981 0 1 1 33.981-33.98 34.022 34.022 0 0 1-33.981 33.98zm0-58.605a24.625 24.625 0 1 0 24.624 24.625 24.653 24.653 0 0 0-24.624-24.625z" class="prefix__cls-33" data-name="Path 4487" transform="translate(-1503.86 -864.768)"/>
                            </g>
                            <g id="prefix__Group_1657" data-name="Group 1657" transform="translate(0 3.119)">
                                <path id="prefix__Path_4488" d="M1527.443 938.672a33.981 33.981 0 1 1 33.981-33.981 34.022 34.022 0 0 1-33.981 33.981zm0-58.605a24.624 24.624 0 1 0 24.624 24.624 24.653 24.653 0 0 0-24.624-24.624z" class="prefix__cls-15" data-name="Path 4488" transform="translate(-1493.46 -870.711)"/>
                            </g>
                        </g>
                        <path id="prefix__Path_4489" d="M1584.787 1020.316a4.763 4.763 0 0 1-.754 3.395h-24.247a27.816 27.816 0 0 1-4.365-4.688 47.3 47.3 0 0 1-6.358-13.308c-3.879-11.8-5.226-24.785-1.347-36.531.862-2.694 1.993-5.335 2.586-8.082a32.134 32.134 0 0 1 1.4-5.981c.808-1.832 2.856-.108 4.9-.054 2.155.054 3.556-1.455 5.657-.808a19.248 19.248 0 0 0 3.017.377c2.371.27 6.2.647 8.136 2.048a39.822 39.822 0 0 1-3.018 4.095 29.786 29.786 0 0 0-3.233 6.412c-.97 2.8-1.886 2.64-1.24 5.55.162.754.808 1.67.7 2.425-.216 1.778-.862 2.209-1.886 3.664-1.724 2.317-1.777 5.5-.97 8.3a29.3 29.3 0 0 0 4.095 7.544l15.356 22.468a8.767 8.767 0 0 1 1.571 3.174z" class="prefix__cls-24" data-name="Path 4489" transform="translate(-1513.244 -907.217)"/>
                        <path id="prefix__Path_4490" d="M1529.488 968.462a5.9 5.9 0 0 0-.539 3.071c.054 17.457 6.466 34.106 11.316 50.918h-56.037c-.215-4.418-.162-8.783 1.132-12.931a4.259 4.259 0 0 1 .323-1.185c2.532-6.95 8.675-12.608 9.429-19.936.323-3.341-.485-6.628-.593-9.968a23.177 23.177 0 0 1 5.281-15.031c2.64-3.233 9-4.635 8.782-8.945 5.819-1.293 10.992-3.987 17.457-2.64a26.307 26.307 0 0 0 7.058 1.024h1.131c1.024-.054 2.317-.054 3.718 0 3.071.108 6.3.647 6.358 2.1 0 1.994-4.58 6.2-6.035 7.436a37.409 37.409 0 0 1-5.55 3.556 8.39 8.39 0 0 0-3.231 2.531z" class="prefix__cls-29" data-name="Path 4490" transform="translate(-1484.131 -905.957)"/>
                    </g>
                    <g id="prefix__Group_1663" data-name="Group 1663" transform="translate(212.83)">
                        <g id="prefix__Group_1662" data-name="Group 1662" transform="translate(4.895)">
                            <g id="prefix__Group_1660" data-name="Group 1660" transform="translate(5.458)">
                                <path id="prefix__Path_4491" d="M1740.618 932.729a33.981 33.981 0 1 1 33.981-33.98 34.022 34.022 0 0 1-33.981 33.98zm0-58.605a24.625 24.625 0 1 0 24.624 24.625 24.653 24.653 0 0 0-24.624-24.625z" class="prefix__cls-33" data-name="Path 4491" transform="translate(-1706.635 -864.768)"/>
                            </g>
                            <g id="prefix__Group_1661" data-name="Group 1661" transform="translate(0 3.119)">
                                <path id="prefix__Path_4492" d="M1730.218 938.672a33.981 33.981 0 1 1 33.981-33.981 34.022 34.022 0 0 1-33.981 33.981zm0-58.605a24.624 24.624 0 1 0 24.624 24.624 24.653 24.653 0 0 0-24.624-24.624z" class="prefix__cls-15" data-name="Path 4492" transform="translate(-1696.235 -870.711)"/>
                            </g>
                        </g>
                        <path id="prefix__Path_4493" d="M1787.563 1020.316a4.766 4.766 0 0 1-.755 3.395h-24.247a27.782 27.782 0 0 1-4.364-4.688 47.283 47.283 0 0 1-6.358-13.308c-3.88-11.8-5.227-24.785-1.347-36.531.862-2.694 1.994-5.335 2.586-8.082a32.162 32.162 0 0 1 1.4-5.981c.809-1.832 2.856-.108 4.9-.054 2.155.054 3.556-1.455 5.657-.808a19.249 19.249 0 0 0 3.018.377c2.37.27 6.2.647 8.136 2.048a39.886 39.886 0 0 1-3.017 4.095 29.821 29.821 0 0 0-3.233 6.412c-.97 2.8-1.885 2.64-1.239 5.55.161.754.808 1.67.7 2.425-.216 1.778-.863 2.209-1.886 3.664-1.724 2.317-1.778 5.5-.97 8.3a29.294 29.294 0 0 0 4.095 7.544l15.361 22.463a8.774 8.774 0 0 1 1.563 3.179z" class="prefix__cls-24" data-name="Path 4493" transform="translate(-1716.019 -907.217)"/>
                        <path id="prefix__Path_4494" d="M1732.264 968.462a5.9 5.9 0 0 0-.539 3.071c.053 17.457 6.465 34.106 11.315 50.918H1687c-.216-4.418-.162-8.783 1.131-12.931a4.276 4.276 0 0 1 .323-1.185c2.532-6.95 8.675-12.608 9.429-19.936.323-3.341-.485-6.628-.593-9.968a23.174 23.174 0 0 1 5.28-15.033c2.64-3.233 9-4.635 8.782-8.945 5.819-1.293 10.992-3.987 17.458-2.64a26.3 26.3 0 0 0 7.058 1.024H1737c1.023-.054 2.317-.054 3.717 0 3.072.108 6.3.647 6.358 2.1 0 1.994-4.58 6.2-6.035 7.436a37.409 37.409 0 0 1-5.55 3.556 8.382 8.382 0 0 0-3.226 2.533z" class="prefix__cls-29" data-name="Path 4494" transform="translate(-1686.907 -905.957)"/>
                    </g>
                </g>
            </g>
            <g id="prefix__Group_1671" data-name="Group 1671" transform="translate(451.04 70.284)">
                <g id="prefix__Group_1670" data-name="Group 1670">
                    <g id="prefix__Group_1666" data-name="Group 1666">
                        <path id="prefix__Path_4495" d="M1875.431 506.336a2.005 2.005 0 0 1-1.779-1.068 9.718 9.718 0 0 0-8.577-5.14h-3.5a2.021 2.021 0 0 1 0-4.041h3.5a13.755 13.755 0 0 1 12.139 7.277 2.025 2.025 0 0 1-.831 2.736 2.047 2.047 0 0 1-.952.236z" class="prefix__cls-25" data-name="Path 4495" transform="translate(-1859.556 -496.086)"/>
                    </g>
                    <g id="prefix__Group_1667" data-name="Group 1667" transform="translate(15.233 15.591)">
                        <path id="prefix__Path_4496" d="M1890.6 573a2.021 2.021 0 0 1-2.021-2.021v-9.592a2.02 2.02 0 1 1 4.041 0v9.592a2.021 2.021 0 0 1-2.02 2.021zm0-38.369a2.021 2.021 0 0 1-2.021-2.02v-4.8a2.02 2.02 0 1 1 4.041 0v4.8a2.021 2.021 0 0 1-2.02 2.024z" class="prefix__cls-25" data-name="Path 4496" transform="translate(-1888.583 -525.795)"/>
                    </g>
                    <g id="prefix__Group_1668" data-name="Group 1668" transform="translate(15.233 63.558)">
                        <path id="prefix__Path_4497" d="M1890.6 875.462a2.021 2.021 0 0 1-2.021-2.021v-9.591a2.02 2.02 0 1 1 4.041 0v9.592a2.021 2.021 0 0 1-2.02 2.02zm0-38.375a2.021 2.021 0 0 1-2.021-2.02v-4.8a2.02 2.02 0 0 1 4.041 0v4.8a2.021 2.021 0 0 1-2.02 2.021zm0-14.391a2.021 2.021 0 0 1-2.021-2.021V791.9a2.02 2.02 0 0 1 4.041 0v28.777a2.021 2.021 0 0 1-2.02 2.023zm0-33.576a2.021 2.021 0 0 1-2.021-2.021v-9.593a2.02 2.02 0 1 1 4.041 0v9.594a2.021 2.021 0 0 1-2.02 2.021zm0-38.375a2.021 2.021 0 0 1-2.021-2.02v-4.794a2.02 2.02 0 0 1 4.041 0v4.794a2.021 2.021 0 0 1-2.02 2.022zm0-14.391a2.021 2.021 0 0 1-2.021-2.02v-28.776a2.02 2.02 0 1 1 4.041 0v28.777a2.021 2.021 0 0 1-2.02 2.02zm0-33.576a2.021 2.021 0 0 1-2.021-2.021v-9.592a2.02 2.02 0 1 1 4.041 0v9.592a2.021 2.021 0 0 1-2.02 2.022zm0-38.375a2.021 2.021 0 0 1-2.021-2.021v-4.793a2.02 2.02 0 1 1 4.041 0v4.793a2.021 2.021 0 0 1-2.02 2.018zm0-14.386a2.021 2.021 0 0 1-2.021-2.021v-28.78a2.02 2.02 0 1 1 4.041 0V648a2.021 2.021 0 0 1-2.02 2.019z" class="prefix__cls-25" data-name="Path 4497" transform="translate(-1888.583 -617.196)"/>
                    </g>
                    <g id="prefix__Group_1669" data-name="Group 1669" transform="translate(15.233 322.577)">
                        <path id="prefix__Path_4498" d="M1890.6 1130.964a2.021 2.021 0 0 1-2.021-2.021v-16.163a2.02 2.02 0 1 1 4.041 0v16.164a2.021 2.021 0 0 1-2.02 2.02z" class="prefix__cls-25" data-name="Path 4498" transform="translate(-1888.583 -1110.759)"/>
                    </g>
                </g>
                <ellipse id="prefix__Ellipse_202" cx="10.549" cy="5.004" class="prefix__cls-24" data-name="Ellipse 202" rx="10.549" ry="5.004" transform="translate(6.705 337.778)"/>
            </g>
        </g>
    </g>
</svg>
