<svg xmlns="http://www.w3.org/2000/svg" width="48" height="48" viewBox="0 0 48 48">
    <defs>
        <style>
            .prefix__cls-2{fill:#fff}.prefix__cls-3,.prefix__cls-4{fill:#505b79}.prefix__cls-4{opacity:.17}
        </style>
    </defs>
    <g id="prefix__cok-bulutlu--48px" transform="translate(-524 -2843)">
        <path id="prefix__boundry" d="M0 0H48V48H0z" transform="translate(524 2843)" style="fill:red;opacity:0"/>
        <g id="prefix__CB" transform="translate(522.695 2841.71)">
            <path id="prefix__Path_496" d="M45.68 26.632v2.023l-1.08 1.821-2.23 1.4h-7.176a5.071 5.071 0 0 0 .223-.864c.527-3.287-2.854-5.821-2.854-5.821a7.354 7.354 0 0 0-3.855-6c-.129-.069-.256-.141-.385-.2l1.564-1.427 1.59-1.613 2.549-.619a16.852 16.852 0 0 0 2.7-.2 18.3 18.3 0 0 1 2.98 1.006l1.357 1.508L42.1 19.6l.748 2.069.715 1.285 1.332 1.485z" class="prefix__cls-2" data-name="Path 496"/>
            <g id="prefix__Group_1455" data-name="Group 1455">
                <g id="prefix__Group_1454" data-name="Group 1454">
                    <path id="prefix__Path_497" d="M44 22.18c-.021-.024-.068-.071-.084-.071a8.93 8.93 0 0 0-3.027-5.586 9.065 9.065 0 0 0-5.961-2.233 9.262 9.262 0 0 0-2.7.408 9.054 9.054 0 0 0-4.7 3.4 7.026 7.026 0 0 0-1.332-.385l.047.514a8.322 8.322 0 0 1 2.08.773c.129.057.256.126.385.2a7.408 7.408 0 0 1 3.986-2.981 7.6 7.6 0 0 1 2.23-.339 7.487 7.487 0 0 1 7.414 6.44 1.86 1.86 0 0 0 .793 1.2 4.1 4.1 0 0 1 1.918 4.113 4.014 4.014 0 0 1-3.2 3.308 5.109 5.109 0 0 1-.947.072h-5.485a4.979 4.979 0 0 1-.223.864 5.472 5.472 0 0 1-.338.724H40.9a6.515 6.515 0 0 0 1.262-.1 5.6 5.6 0 0 0 4.457-4.58A5.737 5.737 0 0 0 44 22.18z" class="prefix__cls-3" data-name="Path 497"/>
                </g>
            </g>
            <path id="prefix__Path_498" d="M17.05 22.408l-3.18-.538-3.063.912-1.273 1.569L8.62 25.5l-1.59.625-1.392 1.327-.875 1.571-.374 1.654.918 2.274 1.3 1.155 2.417.871h22.421l2.227-1.408 1.074-1.818v-2.025l-.781-2.192-1.326-1.488-.717-1.283-.758-2.063-1.031-1.943-1.354-1.507a18.091 18.091 0 0 0-2.982-1 17.365 17.365 0 0 1-2.7.192l-2.544.62-1.589 1.611z" class="prefix__cls-2" data-name="Path 498"/>
            <g id="prefix__Group_1457" data-name="Group 1457">
                <g id="prefix__Group_1456" data-name="Group 1456">
                    <path id="prefix__Path_499" d="M33.068 25.279c-.029-.019-.072-.074-.082-.074a9.082 9.082 0 0 0-16.386-4.01 7.5 7.5 0 0 0-2.738-.524 7.264 7.264 0 0 0-6.4 3.976 5.608 5.608 0 0 0-4.1 6.185 5.548 5.548 0 0 0 5.728 4.879H29.967a6.329 6.329 0 0 0 1.268-.108 5.6 5.6 0 0 0 4.445-4.583 5.718 5.718 0 0 0-2.612-5.741zm1.047 5.453a4 4 0 0 1-3.2 3.31 4.781 4.781 0 0 1-.951.074H9.095a3.968 3.968 0 0 1-4.16-3.506 4.029 4.029 0 0 1 2.954-4.43 1.694 1.694 0 0 0 1.031-.811 5.583 5.583 0 0 1 4.941-3.107 6.051 6.051 0 0 1 2.337.486l.651.257.049.019a.415.415 0 0 0 .135.021.444.444 0 0 0 .363-.187.237.237 0 0 0 .035-.052l.134-.2a7.55 7.55 0 0 1 4.2-3.283 7.386 7.386 0 0 1 2.223-.341 7.486 7.486 0 0 1 7.418 6.441 1.806 1.806 0 0 0 .8 1.2 4.109 4.109 0 0 1 1.909 4.109z" class="prefix__cls-3" data-name="Path 499"/>
                </g>
            </g>
            <path id="prefix__Path_500" d="M29.24 17.717s4.7 2.07 5.066 6.865a6.532 6.532 0 0 1 2.336 6.918h-2.166l.143-3.556-2.219-2.168-.34-2.271-3.021-3.6L28 19.13z" class="prefix__cls-4" data-name="Path 500"/>
            <path id="prefix__Path_501" d="M25.294 33.421c-7.21-.221-19.718-1.173-19.184-5.066 0 0-2.188 3.625 3.108 5.131h16.088c-.006-.022-.006-.044-.012-.065z" class="prefix__cls-4" data-name="Path 501"/>
        </g>
    </g>
</svg>
