<svg xmlns="http://www.w3.org/2000/svg" width="48" height="48" viewBox="0 0 48 48">
    <defs>
        <style>
            .prefix__cls-2{fill:#fff}.prefix__cls-3,.prefix__cls-4{fill:#505b78}.prefix__cls-4{opacity:.17}
        </style>
    </defs>
    <g id="prefix__hafif-kar-yagisli-48px" transform="translate(-746 -2723)">
        <path id="prefix__boundry" d="M0 0H48V48H0z" transform="translate(746 2723)" style="fill:red;opacity:0"/>
        <g id="prefix__hky" transform="translate(744.994 2722.285)">
            <path id="prefix__Path_617" d="M46.41 24.106v2.009l-1.1 1.811-2.29 1.4h-7.88l.021-.041v-2.02l-.8-2.17-1.37-1.489-.73-1.271-.779-2.06-1.062-1.931-1.39-1.5s-.23-.09-.57-.22l1.74-1.53 1.63-1.6 2.61-.61a18.356 18.356 0 0 0 2.779-.2 19.248 19.248 0 0 1 3.061 1l1.39 1.49 1.061 1.93.779 2.06.74 1.28 1.36 1.479z" class="prefix__cls-2" data-name="Path 617"/>
            <path id="prefix__Path_618" d="M16.857 20.077l-3.284-.536-3.163.905-1.315 1.565-.945 1.149-1.64.625L5.074 25.1l-.907 1.57-.385 1.643.95 2.266 1.338 1.154 2.495.867h23.161l2.3-1.4 1.109-1.813v-2.021l-.807-2.182-1.371-1.49-.74-1.279-.781-2.063-1.066-1.934-1.4-1.5a19.083 19.083 0 0 0-3.078-1 18.248 18.248 0 0 1-2.792.194l-2.627.614-1.64 1.61z" class="prefix__cls-2" data-name="Path 618"/>
            <g id="prefix__Group_1535" data-name="Group 1535">
                <g id="prefix__Group_1532" data-name="Group 1532">
                    <g id="prefix__Group_1531" data-name="Group 1531">
                        <path id="prefix__Path_619" d="M44.264 19.715c-.021-.023-.07-.071-.084-.071a9.082 9.082 0 0 0-3.07-5.665 9.194 9.194 0 0 0-6.045-2.264 9.356 9.356 0 0 0-2.734.414 9.18 9.18 0 0 0-4.768 3.449 7.11 7.11 0 0 0-1.353-.391l.047.521a8.5 8.5 0 0 1 2.111.783c.13.06.26.13.391.2a7.519 7.519 0 0 1 4.041-3.022 7.69 7.69 0 0 1 2.262-.343 7.592 7.592 0 0 1 7.519 6.53 1.875 1.875 0 0 0 .808 1.221 4.162 4.162 0 0 1 1.942 4.172 4.072 4.072 0 0 1-3.245 3.351 5.22 5.22 0 0 1-.961.069h-5.56a5.209 5.209 0 0 1-.228.877 5.454 5.454 0 0 1-.345.733h6.128a6.768 6.768 0 0 0 1.278-.1 5.683 5.683 0 0 0 4.52-4.646 5.814 5.814 0 0 0-2.654-5.818z" class="prefix__cls-3" data-name="Path 619"/>
                    </g>
                </g>
                <g id="prefix__Group_1534" data-name="Group 1534">
                    <g id="prefix__Group_1533" data-name="Group 1533">
                        <path id="prefix__Path_620" d="M33.18 22.856c-.029-.021-.07-.07-.08-.07a9.2 9.2 0 0 0-11.857-7.51 9.263 9.263 0 0 0-4.761 3.44 7.672 7.672 0 0 0-2.77-.53 7.356 7.356 0 0 0-6.49 4.03 5.68 5.68 0 0 0-4.16 6.271 5.62 5.62 0 0 0 5.811 4.949h6.4a4.376 4.376 0 0 1-.1-.949 4.846 4.846 0 0 1 .05-.658H8.87a4.042 4.042 0 0 1-4.221-3.563 4.1 4.1 0 0 1 3-4.49 1.727 1.727 0 0 0 1.04-.82A5.664 5.664 0 0 1 13.7 19.8a6.125 6.125 0 0 1 2.38.5l.66.26a.073.073 0 0 1 .039.02.7.7 0 0 0 .141.021.47.47 0 0 0 .37-.19c.02-.02.02-.04.04-.06l.13-.2A7.6 7.6 0 0 1 31.5 23a1.83 1.83 0 0 0 .812 1.22 4.169 4.169 0 0 1 1.932 4.17A4.035 4.035 0 0 1 31 31.747a5.115 5.115 0 0 1-.96.069h-2.21a5.065 5.065 0 0 1 .05.67 4.209 4.209 0 0 1-.1.951h2.26a6.666 6.666 0 0 0 1.278-.11 5.687 5.687 0 0 0 4.512-4.65 5.811 5.811 0 0 0-2.65-5.821z" class="prefix__cls-3" data-name="Path 620"/>
                    </g>
                </g>
                <path id="prefix__Path_621" d="M29.3 15.189s4.767 2.1 5.138 6.963a6.623 6.623 0 0 1 2.369 7.013h-2.2l.146-3.6-2.243-2.198-.347-2.3-3.063-3.653-1.063-.791z" class="prefix__cls-4" data-name="Path 621"/>
                <path id="prefix__Path_622" d="M11.384 29.682c-3-.687-5.217-1.683-5.515-3.13-.074-.05-.149-.095-.225-.146-.4 1.011-.9 3.563 3.352 4.773h5.974q-1.806-.654-3.586-1.497z" class="prefix__cls-4" data-name="Path 622"/>
                <path id="prefix__Path_623" d="M27.206 32.6a.806.806 0 0 1-.81.813H23.48l2.069 2.066a.819.819 0 0 1 0 1.142.8.8 0 0 1-1.14 0l-2.079-2.08v2.938a.8.8 0 1 1-1.609 0V34.54l-2.079 2.079a.8.8 0 0 1-1.138 0 .814.814 0 0 1 0-1.141l2.068-2.067h-2.928a.812.812 0 0 1 0-1.624h2.928L17.5 29.72a.811.811 0 0 1 .568-1.38.789.789 0 0 1 .569.242l2.083 2.078v-2.938a.8.8 0 1 1 1.609 0v2.928l2.071-2.066a.809.809 0 0 1 1.15 0 .8.8 0 0 1 .229.566.843.843 0 0 1-.229.568l-2.069 2.067H26.4a.811.811 0 0 1 .806.815z" data-name="Path 623" style="fill:#4d8fc6"/>
            </g>
        </g>
    </g>
</svg>
