<svg xmlns="http://www.w3.org/2000/svg" width="48" height="48" viewBox="0 0 48 48">
    <defs>
        <style>
            .prefix__cls-2{fill:#fccd63}.prefix__cls-3{fill:#fff}.prefix__cls-4,.prefix__cls-5{fill:#505b79}.prefix__cls-5{opacity:.17}
        </style>
    </defs>
    <g id="prefix__parcali-bulutu-48px" transform="translate(-524 -2723)">
        <path id="prefix__boundry" d="M0 0H48V48H0z" transform="translate(524 2723)" style="fill:red;opacity:0"/>
        <g id="prefix__PB" transform="translate(524.56 2722.463)">
            <path id="prefix__Path_507" d="M23.73 31.8a7.417 7.417 0 0 0-2.03-2.858 6.8 6.8 0 0 0-9.611.688 9.7 9.7 0 1 1 18.428-5.91 5.892 5.892 0 0 0-3.75 2.83 4.911 4.911 0 0 0-3.037 5.25z" class="prefix__cls-2" data-name="Path 507"/>
            <path id="prefix__Path_508" d="M22.369 13.221a1.288 1.288 0 0 1-1.288 1.288 1.287 1.287 0 0 1-1.288-1.288v-3.4a1.287 1.287 0 0 1 1.288-1.288 1.288 1.288 0 0 1 1.288 1.288z" class="prefix__cls-2" data-name="Path 508"/>
            <path id="prefix__Path_509" d="M31.426 18.337a1.287 1.287 0 0 1-1.822 0 1.286 1.286 0 0 1 0-1.821l2.4-2.4a1.286 1.286 0 0 1 1.821 0 1.287 1.287 0 0 1 0 1.823z" class="prefix__cls-2" data-name="Path 509"/>
            <path id="prefix__Path_510" d="M4.729 27.262a1.287 1.287 0 0 1-1.289-1.287 1.289 1.289 0 0 1 1.289-1.288h3.4a1.287 1.287 0 0 1 1.288 1.288 1.287 1.287 0 0 1-1.288 1.287z" class="prefix__cls-2" data-name="Path 510"/>
            <path id="prefix__Path_511" d="M8.911 15.131a1.287 1.287 0 0 1 0-1.824 1.281 1.281 0 0 1 1.82 0l2.4 2.4a1.286 1.286 0 0 1 0 1.822 1.283 1.283 0 0 1-1.82 0z" class="prefix__cls-2" data-name="Path 511"/>
            <g id="prefix__Group_1465" data-name="Group 1465">
                <path id="prefix__Path_512" d="M12.917 31.571l-1.9-.322-1.832.544-.761.939-.547.688-.95.376-.832.789-.525.943-.223.985.55 1.36.775.692 1.445.521h13.412l1.333-.843.643-1.088v-1.211l-.467-1.31-.793-.9-.429-.768-.454-1.238-.618-1.161-.81-.9a10.911 10.911 0 0 0-1.783-.6 10.116 10.116 0 0 1-1.617.117l-1.522.368-.95.967z" class="prefix__cls-3" data-name="Path 512"/>
                <g id="prefix__Group_1464" data-name="Group 1464">
                    <g id="prefix__Group_1463" data-name="Group 1463">
                        <g id="prefix__Group_1462" data-name="Group 1462">
                            <path id="prefix__Path_513" d="M23.258 33.573a.34.34 0 0 0-.034-.032c-.151-.142-.352-.32-.383-.347a5.993 5.993 0 0 0-5.869-4.8 5.994 5.994 0 0 0-4.5 2.044 5.037 5.037 0 0 0-1.283-.167A4.916 4.916 0 0 0 7 32.676a4.017 4.017 0 0 0 1.469 7.788h11.912a4.2 4.2 0 0 0 .884-.079 3.993 3.993 0 0 0 3.168-3.261 4.12 4.12 0 0 0-1.175-3.551zm-.408 3.264a2.41 2.41 0 0 1-1.905 1.973 2.956 2.956 0 0 1-.565.046H8.471a2.361 2.361 0 0 1-2.477-2.092 2.406 2.406 0 0 1 1.765-2.645l.076-.02a.647.647 0 0 0 .335-.224l.005-.007.072-.134a3.327 3.327 0 0 1 2.943-1.854 3.5 3.5 0 0 1 1.27.244l.268.1.014.005a.426.426 0 0 0 .463-.114l.016-.019.181-.248a4.428 4.428 0 0 1 2.272-1.647 4.277 4.277 0 0 1 1.3-.2 4.384 4.384 0 0 1 4.214 3.175.116.116 0 0 0 0 .02c0 .009.007.021.011.033s.012.049.019.079a.214.214 0 0 0 .008.032l.027.112.008.045c.031.135.065.3.093.473v.016a.051.051 0 0 0 0 .009.529.529 0 0 0 .283.335 1.621 1.621 0 0 1 .21.133c.013.009.023.019.035.028a2.092 2.092 0 0 1 .174.151l.037.036c.062.064.121.128.17.188a.161.161 0 0 1 .035.046 2.323 2.323 0 0 1 .183.253.064.064 0 0 0 .014.022 2.418 2.418 0 0 1 .355 1.65z" class="prefix__cls-4" data-name="Path 513"/>
                        </g>
                    </g>
                </g>
                <path id="prefix__Path_514" d="M16.8 38.466c-3.763-.135-10.293-.705-10.016-3.04 0 0-1.142 2.176 1.623 3.077h8.4a.119.119 0 0 0-.007-.037z" class="prefix__cls-5" data-name="Path 514"/>
            </g>
            <g id="prefix__Group_1469" data-name="Group 1469">
                <path id="prefix__Path_515" d="M33.173 26.357l-1.816-.307-1.748.521-.727.9-.522.658-.909.357-.8.756-.5.9-.213.943.525 1.3.74.664 1.38.494h12.811l1.271-.805.613-1.039v-1.166l-.445-1.25-.758-.854-.408-.734-.434-1.178-.59-1.111-.773-.86a10.37 10.37 0 0 0-1.7-.573 9.773 9.773 0 0 1-1.546.11l-1.451.354-.907.92z" class="prefix__cls-3" data-name="Path 515"/>
                <g id="prefix__Group_1468" data-name="Group 1468">
                    <g id="prefix__Group_1467" data-name="Group 1467">
                        <g id="prefix__Group_1466" data-name="Group 1466">
                            <path id="prefix__Path_516" d="M43.049 28.273a.118.118 0 0 0-.036-.033c-.138-.133-.331-.309-.367-.334a5.734 5.734 0 0 0-5.608-4.585 5.863 5.863 0 0 0-1.695.263 5.741 5.741 0 0 0-2.6 1.7 4.518 4.518 0 0 0-2.546.035 4.775 4.775 0 0 0-2.678 2.1 3.819 3.819 0 0 0-2.485 4.111 3.863 3.863 0 0 0 1.12 2.24 3.917 3.917 0 0 0 2.765 1.084H40.3a4 4 0 0 0 .84-.078 3.808 3.808 0 0 0 3.027-3.115 3.909 3.909 0 0 0-1.118-3.388zm-2.749 5.04H28.928a2.42 2.42 0 0 1-1.514-.48 2.2 2.2 0 0 1-.855-1.514 2.3 2.3 0 0 1 1.688-2.529l.07-.018a.548.548 0 0 0 .315-.219c.009 0 .009-.01.009-.01l.069-.121a3.351 3.351 0 0 1 1.557-1.494v-.01a3.138 3.138 0 0 1 1.251-.264 3.256 3.256 0 0 1 1.216.236l.255.1h.019a.389.389 0 0 0 .438-.1l.019-.018.174-.236a4.18 4.18 0 0 1 2.169-1.575 4.231 4.231 0 0 1 1.232-.192 4.183 4.183 0 0 1 4.026 3.031.028.028 0 0 0 .008.018.059.059 0 0 0 .01.037.344.344 0 0 0 .018.07c0 .008.009.023.009.033a.732.732 0 0 1 .026.1l.009.043c.026.131.062.289.089.457v.018a.524.524 0 0 0 .271.324 1.463 1.463 0 0 1 .2.123.076.076 0 0 1 .036.035 1.394 1.394 0 0 1 .165.141c.009.018.026.025.035.033a2.341 2.341 0 0 1 .165.186c.011.008.019.025.036.033a1.469 1.469 0 0 1 .165.244c.009.01.009.018.018.027a2.332 2.332 0 0 1 .369 1.223 2.316 2.316 0 0 1-2.395 2.268z" class="prefix__cls-4" data-name="Path 516"/>
                        </g>
                    </g>
                </g>
                <path id="prefix__Path_517" d="M36.877 32.941c-3.594-.127-9.828-.674-9.563-2.9 0 0-1.091 2.078 1.548 2.939h8.021l-.006-.039z" class="prefix__cls-5" data-name="Path 517"/>
            </g>
        </g>
    </g>
</svg>
