<svg xmlns="http://www.w3.org/2000/svg" width="48" height="48" viewBox="0 0 48 48">
    <defs>
        <style>
            .prefix__cls-3{fill:#fff}.prefix__cls-4{fill:#e52921}.prefix__cls-5{fill:#edc4d6}
        </style>
    </defs>
    <g id="prefix__ruzgarli-48px" transform="translate(-70 -3023)">
        <path id="prefix__boundry" d="M0 0H48V48H0z" transform="translate(70 3023)" style="fill:red;opacity:0"/>
        <g id="prefix__R" transform="translate(69.4 3021.6)">
            <path id="prefix__Path_567" d="M12.6 11.4v.1c-.2 0-.3-.1-.5-.1a.9.9 0 0 0-.5.1v-.1z" data-name="Path 567"/>
            <path id="prefix__Path_568" d="M12.6 11.5v27.1h-1V11.5c.2 0 .3-.1.5-.1a1.087 1.087 0 0 1 .5.1z" data-name="Path 568" style="fill:#1a1a26"/>
            <g id="prefix__Group_1498" data-name="Group 1498">
                <g id="prefix__Group_1497" data-name="Group 1497">
                    <path id="prefix__Path_569" d="M25 13.7l-.4 4.3-.1 1.5-.5-.1a1.7 1.7 0 0 0 .1-.7v-.5a1.7 1.7 0 0 1 .1-.7v-.8h-.1l-.8-.2h-.1v-.3c0-.1-.1-.1-.2-.1h-.4a1.007 1.007 0 0 0-.3.1c-.3-.3-.6-.2-.9-.3-.5-.1-1 .3-1.6.4-.2 0-.4.1-.5-.2v2.3l-.7-.2.5-3.8v-.2l.3-2h.1c.6.2 3.4.9 5 1.4.1 0 .1 0 .2.1z" class="prefix__cls-3" data-name="Path 569"/>
                    <path id="prefix__Path_570" d="M28.9 15.1s4.9 1.8 5.9 2.2l-.4 3.9-1.4-.1-3.2-1.1-2.5-1 .2-2.4z" class="prefix__cls-3" data-name="Path 570"/>
                    <path id="prefix__Path_571" d="M19.6 12.7c.1-.3.1-.4 0-.5h-.2c-.5-.1-1.1-.1-1.6-.2-1-.1-2.1-.3-3.1-.4h-.1c0 .2-.2.2-.2.1v6c.1 0 .1 0 .1.1v.4l-.1.1c-.1.1-.2.2-.2.3a.9.9 0 0 1 .1.5c0 .1.1.1.2.1h.1a2.2 2.2 0 0 1 .8.1 11.933 11.933 0 0 0 2.6.5 2.462 2.462 0 0 1 1.2.1c.1-.2.1-.3.2-.5v-4a1.949 1.949 0 0 0-.1-.8V14.3c.1-.1.3-.1.2-.4 0-.5.1-.9.1-1.2z" class="prefix__cls-4" data-name="Path 571"/>
                    <path id="prefix__Path_572" d="M29.2 16.9v.4c0 .6-.1 1.1-.1 1.7v2a19.013 19.013 0 0 1-2.5-.3c-.6-.1-1.3-.2-1.9-.3-.1 0-.2 0-.3-.2.1-.2.1-.4.2-.6a1.7 1.7 0 0 0 .1-.7v-.5a1.7 1.7 0 0 1 .1-.7v-.8a9.7 9.7 0 0 0-.1-1.7 2.082 2.082 0 0 1 .3-1.3c0-.1.1-.1.2-.1s.1 0 .2.1h.1c1.2.4 2.4.9 3.6 1.3h.1a.6.6 0 0 0 .4.1h.1c.2.1.2.3 0 1.1-.7.2-.5.3-.5.5z" class="prefix__cls-4" data-name="Path 572"/>
                    <path id="prefix__Path_573" d="M38.6 19.4c-.1.6 0 1.2-.1 1.7a.367.367 0 0 1-.1.3c-.1.2-.1.4-.2.6-.2.5-.4.6-.8.6-.8-.1-1.6-.3-2.4-.4l-1.8-.3a.1.1 0 0 1-.1-.1 3.743 3.743 0 0 0 .5-1.8 4.854 4.854 0 0 0 0-1.7c-.1-.4.1-.7.1-1.1 0-.1.1 0 .2 0 .9.3 1.7.7 2.6 1l1.5.6a.215.215 0 0 1 .2.2c.4-.1.4.1.4.4z" class="prefix__cls-4" data-name="Path 573"/>
                    <path id="prefix__Path_574" d="M19.4 16zm-.1 2.3v.9c0 .2 0 .4-.2.5a2.257 2.257 0 0 0 1.6.2 6.045 6.045 0 0 1 1.9 0 1.934 1.934 0 0 0 1.3 0c.1-.2.1-.4.2-.6zm4.6-1.8c0-.1.2 0 .1-.2-.1-.1-.2-.1-.4 0-.1 0-.1.1-.2.2l.8.2c-.2-.2-.3 0-.3-.2z" class="prefix__cls-5" data-name="Path 574"/>
                    <path id="prefix__Path_575" d="M24.2 17.5c0 .2-.1.5-.1.7v.5c0 .3-.1.5-.1.7l-4.7-1.1V16c.1.3.3.2.5.2a7.491 7.491 0 0 1 1.6-.4 1.1 1.1 0 0 1 .9.3.494.494 0 0 0 .3-.1h.4c.1 0 .2 0 .2.1v.3c0 .1.1.1.1 0l.8.2h.1v.9z" class="prefix__cls-5" data-name="Path 575"/>
                    <path id="prefix__Path_576" d="M33.4 19.9a1.077 1.077 0 0 0-.8-.2 1.979 1.979 0 0 1-1.4-1 1.576 1.576 0 0 0-.7-.7c-.3-.2-.7-.1-.9-.5h-.1c-.2.3-.3-.1-.4-.1 0 .6-.1 1.1-.1 1.7v1.8c.2.1.3.1.5.2.8.1 1.5.3 2.3.4a12.86 12.86 0 0 0 1.9.4 3.743 3.743 0 0 0 .5-1.8c-.5-.2-.6-.1-.8-.2zm.1.7c0-.2 0-.3.1-.4 0 .2 0 .3-.1.4z" class="prefix__cls-5" data-name="Path 576"/>
                </g>
                <path id="prefix__Path_577" d="M14.6 11.5c-.2 0-.3 0-.4.1v6a.367.367 0 0 1 .1.3 1.952 1.952 0 0 1-.1.7v.3h.1a.1.1 0 0 0 .1-.1c-.2-.3.1-.6 0-.9v-5.1c.2-.2.1-.8.2-1.3zm-.3 5.5v-3.5h.1l-.1 3.5z" class="prefix__cls-4" data-name="Path 577"/>
            </g>
        </g>
    </g>
</svg>
