<svg xmlns="http://www.w3.org/2000/svg" width="24" height="32" viewBox="0 0 24 32">
    <defs>
        <style>
            .prefix__cls-1{fill:#1b569c;fill-rule:evenodd}
        </style>
    </defs>
    <g id="prefix__IBB-Logo" transform="translate(-20 -16)">
        <g id="prefix___Group_" data-name="&lt;Group&gt;" transform="translate(-32.541 -10.67)">
            <path id="prefix___Compound_Path_" d="M86.323 53.33a5.276 5.276 0 0 0 1.082-.426c.163-.09.314-.186.465-.288 2.775-1.9 2.309-5.94 2.309-5.94v-.048h6.39a3.291 3.291 0 0 0-3.24-2.238 3.825 3.825 0 0 0-3.174 1.524v-2.7l5.441-.048a2.755 2.755 0 0 0-2.763-1.926 3.358 3.358 0 0 0-2.66 1.65V40.3l.792-.936v-.8h-.785s-.036-1.536-.036-2.262l-.163-1.6-.508-3.636h-.151l-.556 3.6-.163 1.2v2.7h-1.488V35.6l.278-.378.465-.636.091-.114v-.6h-.822l-.06-2.688a4.028 4.028 0 0 0-.079-.6l-.6-3.888h-.175l-.478 3.066-.091.7-.073.8-.042 2.61H84v-2.648a6.427 6.427 0 0 0-.079-.69l-.073-.438-.6-3.426h-.2l-.6 4.164V33.2a3.646 3.646 0 0 1 0 .678h-.8v.6l.048.06.478.678.266.39v2.964H80.9s-.036-1.752 0-2.262a13.005 13.005 0 0 0-.163-1.74l-.592-3.5h-.2s-.465 3.232-.465 3.492-.151 1.362-.151 1.362l-.036 2.64h-.8v.8l.756.936v2.55h-.091a2.765 2.765 0 0 0-2.581-1.578 2.859 2.859 0 0 0-2.684 1.8l5.356.048v2.892h-.115A3.633 3.633 0 0 0 76 44.269a3.468 3.468 0 0 0-3.428 2.442l6.692-.042c-.2 3.33 1.094 5.052 2.418 5.94a3.724 3.724 0 0 0 .478.288 6.069 6.069 0 0 0 1.01.426 5.925 5.925 0 0 0 .641.162 4.668 4.668 0 0 0 .568.078h.417a8.947 8.947 0 0 0 .943-.114 4.214 4.214 0 0 0 .584-.119zm3.065-4.1H86.7l.707-1.2.465-.8.163-.276zM87.405 40l.441-.51.731.786v4.026a4.75 4.75 0 0 0-.731-.6c-.151-.1-.3-.2-.465-.288l-.23-.114-.036-3zm-1.65 5.118l.568-.966 1.082 1.8.266.45h-2.684zm-.175-4.842l-.054 2.514c-.254 0-.49-.048-.731-.048a5.441 5.441 0 0 0-.653.036l-.05-2.478.707-.8zM84.068 35.6l.719-.762.756.726v3h-1.475zm-.895 8.581l.641 1.1.707 1.2H81.85l.326-.564zM80.907 40.3l.725-.834.06.048.478.462.314.3V43.2a2.656 2.656 0 0 0-.326.162 4.362 4.362 0 0 0-.478.288 4.049 4.049 0 0 0-.792.66zm-.683 9l1.324-2.292.151.24.478.816.731 1.236h-2.685zm3.627 2.652H81.9l.3-.528.985-1.758v-.036l.6 1.074.731 1.2zm0-2.712h-.363l.363-.648.973-1.638v.036l.943 1.59.393.66h-2.334zm1.928 1.488l.568-.978.06-.1 1.022 1.74.326.564h-2.707z" class="prefix__cls-1" data-name="&lt;Compound Path&gt;" transform="translate(-20.029)"/>
            <path id="prefix___Path_2" d="M79.111 62.188V61.3h-.762v.8H77.5v-.792h-.9v.8h-.85v-.8H75v.8a10.445 10.445 0 0 0 8.723 10.279c.417.072 1.034.114 1.33.132V68.53a5.649 5.649 0 0 1-.967-.132 6.359 6.359 0 0 1-4.975-6.21z" class="prefix__cls-1" data-name="&lt;Path&gt;" transform="translate(-20.99 -13.851)"/>
            <path id="prefix___Path_3" d="M102.524 62.114h-.846v-.8h-.907v.8h-.846v-.8h-.768v.886a6.359 6.359 0 0 1-4.975 6.2 5.629 5.629 0 0 1-.961.132v3.984a9.932 9.932 0 0 0 1.33-.132 10.445 10.445 0 0 0 8.749-10.276v-.8h-.78z" class="prefix__cls-1" data-name="&lt;Path&gt;" transform="translate(-28.196 -13.855)"/>
        </g>
    </g>
</svg>
