<svg xmlns="http://www.w3.org/2000/svg" width="92" height="32" viewBox="0 0 92 32">
    <defs>
        <style>
            .prefix__cls-1{fill:#1b569c;fill-rule:evenodd}
        </style>
    </defs>
    <g id="prefix__IBB-Logo" transform="translate(-20 -16)">
        <g id="prefix___Group_" data-name="&lt;Group&gt;" transform="translate(-32.541 -10.67)">
            <path id="prefix___Compound_Path_" d="M86.323 53.33a5.276 5.276 0 0 0 1.082-.426c.163-.09.314-.186.465-.288 2.775-1.9 2.309-5.94 2.309-5.94v-.048h6.39a3.291 3.291 0 0 0-3.24-2.238 3.825 3.825 0 0 0-3.174 1.524v-2.7l5.441-.048a2.755 2.755 0 0 0-2.763-1.926 3.358 3.358 0 0 0-2.66 1.65V40.3l.792-.936v-.8h-.785s-.036-1.536-.036-2.262l-.163-1.6-.508-3.636h-.151l-.556 3.6-.163 1.2v2.7h-1.488V35.6l.278-.378.465-.636.091-.114v-.6h-.822l-.06-2.688a4.028 4.028 0 0 0-.079-.6l-.6-3.888h-.175l-.478 3.066-.091.7-.073.8-.042 2.61H84v-2.648a6.427 6.427 0 0 0-.079-.69l-.073-.438-.6-3.426h-.2l-.6 4.164V33.2a3.646 3.646 0 0 1 0 .678h-.8v.6l.048.06.478.678.266.39v2.964H80.9s-.036-1.752 0-2.262a13.005 13.005 0 0 0-.163-1.74l-.592-3.5h-.2s-.465 3.232-.465 3.492-.151 1.362-.151 1.362l-.036 2.64h-.8v.8l.756.936v2.55h-.091a2.765 2.765 0 0 0-2.581-1.578 2.859 2.859 0 0 0-2.684 1.8l5.356.048v2.892h-.115A3.633 3.633 0 0 0 76 44.269a3.468 3.468 0 0 0-3.428 2.442l6.692-.042c-.2 3.33 1.094 5.052 2.418 5.94a3.724 3.724 0 0 0 .478.288 6.069 6.069 0 0 0 1.01.426 5.925 5.925 0 0 0 .641.162 4.668 4.668 0 0 0 .568.078h.417a8.947 8.947 0 0 0 .943-.114 4.214 4.214 0 0 0 .584-.119zm3.065-4.1H86.7l.707-1.2.465-.8.163-.276zM87.405 40l.441-.51.731.786v4.026a4.75 4.75 0 0 0-.731-.6c-.151-.1-.3-.2-.465-.288l-.23-.114-.036-3zm-1.65 5.118l.568-.966 1.082 1.8.266.45h-2.684zm-.175-4.842l-.054 2.514c-.254 0-.49-.048-.731-.048a5.441 5.441 0 0 0-.653.036l-.05-2.478.707-.8zM84.068 35.6l.719-.762.756.726v3h-1.475zm-.895 8.581l.641 1.1.707 1.2H81.85l.326-.564zM80.907 40.3l.725-.834.06.048.478.462.314.3V43.2a2.656 2.656 0 0 0-.326.162 4.362 4.362 0 0 0-.478.288 4.049 4.049 0 0 0-.792.66zm-.683 9l1.324-2.292.151.24.478.816.731 1.236h-2.685zm3.627 2.652H81.9l.3-.528.985-1.758v-.036l.6 1.074.731 1.2zm0-2.712h-.363l.363-.648.973-1.638v.036l.943 1.59.393.66h-2.334zm1.928 1.488l.568-.978.06-.1 1.022 1.74.326.564h-2.707z" class="prefix__cls-1" data-name="&lt;Compound Path&gt;" transform="translate(-20.029)"/>
            <path id="prefix___Path_2" d="M79.111 62.188V61.3h-.762v.8H77.5v-.792h-.9v.8h-.85v-.8H75v.8a10.445 10.445 0 0 0 8.723 10.279c.417.072 1.034.114 1.33.132V68.53a5.649 5.649 0 0 1-.967-.132 6.359 6.359 0 0 1-4.975-6.21z" class="prefix__cls-1" data-name="&lt;Path&gt;" transform="translate(-20.99 -13.851)"/>
            <path id="prefix___Path_3" d="M102.524 62.114h-.846v-.8h-.907v.8h-.846v-.8h-.768v.886a6.359 6.359 0 0 1-4.975 6.2 5.629 5.629 0 0 1-.961.132v3.984a9.932 9.932 0 0 0 1.33-.132 10.445 10.445 0 0 0 8.749-10.276v-.8h-.78z" class="prefix__cls-1" data-name="&lt;Path&gt;" transform="translate(-28.196 -13.855)"/>
        </g>
        <g id="prefix___Group_2" data-name="&lt;Group&gt;" transform="translate(21.84 -35.262)">
            <g id="prefix___Group_3" data-name="&lt;Group&gt;" transform="translate(31.16 57.262)">
                <g id="prefix___Group_4" data-name="&lt;Group&gt;">
                    <path id="prefix___Compound_Path_2" d="M77.34 101.792h.551v.6h-.551zm-.13 1.008h.8v3.025h-.81zm-1.91.03l-.06.625a2.577 2.577 0 0 0-.356-.116l-.165-.03h-.16a.763.763 0 0 0-.381.081.237.237 0 0 0-.135.212.232.232 0 0 0 .07.166.531.531 0 0 0 .211.121l.135.04a2.56 2.56 0 0 1 .687.3.75.75 0 0 1 .231.282.882.882 0 0 1 .075.373.925.925 0 0 1-.331.766 1.5 1.5 0 0 1-.958.267 3.263 3.263 0 0 1-.451-.03 3.428 3.428 0 0 1-.456-.1l.07-.676a2.271 2.271 0 0 0 .411.146l.191.035h.186a.684.684 0 0 0 .376-.091.278.278 0 0 0 .14-.242q0-.187-.441-.343l-.165-.055a1.5 1.5 0 0 1-.612-.358.764.764 0 0 1-.186-.5.829.829 0 0 1 .326-.7 1.5 1.5 0 0 1 .933-.247 3.1 3.1 0 0 1 .426.03l.2.03zm-5.971-.03h2.1v.57h-1.293v.61h1.218v.575h-1.218v.691h1.339v.585h-2.147zm-4.462 0h.912l.6 1.281.6-1.281h.867l-1.1 1.9v1.134h-.8V104.7zm-2.156-1.008h.551v.6h-.551zm-.13 1.008h.8v3.025h-.8zm-4.618 0h1.058a3.819 3.819 0 0 1 .692.05 1.354 1.354 0 0 1 .456.161 1.388 1.388 0 0 1 .5.534 1.611 1.611 0 0 1 .165.751 1.682 1.682 0 0 1-.175.822 1.382 1.382 0 0 1-.541.5 1.353 1.353 0 0 1-.456.151l-.326.035h-1.378zm.807.585v1.84h.346a.865.865 0 0 0 .657-.242.951.951 0 0 0 .227-.683.911.911 0 0 0-.246-.691.934.934 0 0 0-.687-.237zm-4.778-.585h2.1v.57h-1.298v.61h1.218v.575h-1.218v.691h1.354v.585h-2.161zm-3.7 0h.8v2.435h1.213v.6H50.3zm-3.966 0h2.1v.57h-1.3v.61h1.218v.575h-1.221v.691h1.339v.585h-2.141zm-4.191 0h1.228a1.412 1.412 0 0 1 .822.2.677.677 0 0 1 .276.59.663.663 0 0 1-.145.439.811.811 0 0 1-.421.252.816.816 0 0 1 .476.247.688.688 0 0 1 .165.474.712.712 0 0 1-.306.635 1.687 1.687 0 0 1-.938.207H42.11zm.787.545v.676h.246a.679.679 0 0 0 .381-.086.3.3 0 0 0 .125-.262.278.278 0 0 0-.12-.247.614.614 0 0 0-.351-.081zm0 1.215v.711h.316a.629.629 0 0 0 .371-.091.313.313 0 0 0 .13-.272.308.308 0 0 0-.115-.262.574.574 0 0 0-.346-.091zm41.763-11.42h2.6a3.493 3.493 0 0 1 1.93.424 1.45 1.45 0 0 1 .627 1.291 1.615 1.615 0 0 1-.331 1.044 1.673 1.673 0 0 1-.963.56 1.632 1.632 0 0 1 .827 1.079l.782 2.188H88.34l-.577-1.8a1.135 1.135 0 0 0-.376-.6 1.308 1.308 0 0 0-.747-.171h-.256v2.571h-1.71zm1.71 1.16v1.689h.612a1.438 1.438 0 0 0 .852-.207.718.718 0 0 0 .281-.62.727.727 0 0 0-.316-.655 1.846 1.846 0 0 0-1-.207zm-4.437-3.338h1.2v1.3h-1.2zm-.281 2.183h1.745v6.58h-1.745zm-6.793 0h1.745v2.521h2.036v-2.521h1.745v6.58h-1.746v-2.753h-2.036v2.753h-1.744zm-5.771 0h4.547v1.235h-2.8v1.326h2.64v1.25h-2.637v1.514h2.908v1.27h-4.653zm-3.73 6.731h-.065a7.079 7.079 0 0 1-1-.071 7.483 7.483 0 0 1-1-.207l.145-1.467a4.94 4.94 0 0 0 .892.318 3.864 3.864 0 0 0 .421.081 3.109 3.109 0 0 0 .406.03 1.5 1.5 0 0 0 .812-.2.6.6 0 0 0 .3-.5q0-.408-.958-.746l-.356-.126a3.266 3.266 0 0 1-1.309-.812 1.655 1.655 0 0 1-.4-1.15 1.8 1.8 0 0 1 .707-1.513 3.28 3.28 0 0 1 2.005-.54 6.752 6.752 0 0 1 .933.061q.226.03.436.071a4.149 4.149 0 0 1 .426.106l-.13 1.356a5.584 5.584 0 0 0-.767-.257q-.185-.04-.361-.066a2.718 2.718 0 0 0-.351 0 1.662 1.662 0 0 0-.827.171.508.508 0 0 0-.145.822 1.152 1.152 0 0 0 .456.262l.291.091a5.554 5.554 0 0 1 1.5.645 1.627 1.627 0 0 1 .5.61 1.91 1.91 0 0 1 .165.812 2.022 2.022 0 0 1-.717 1.664 2.833 2.833 0 0 1-1.5.545v.262h.085a1.178 1.178 0 0 1 .782.232.819.819 0 0 1 .271.661.88.88 0 0 1-.306.711 1.3 1.3 0 0 1-.862.257 4.068 4.068 0 0 1-.607-.055 5.92 5.92 0 0 1-.737-.166v-.635q.376.1.7.151a3.256 3.256 0 0 0 .551.055.464.464 0 0 0 .291-.081.3.3 0 0 0 .105-.252.237.237 0 0 0-.13-.222.908.908 0 0 0-.421-.071h-.256zm-8.378-6.736h1.745v2.844l2.005-2.844h1.955l-2.41 3.025 2.652 3.56h-2.147l-2.06-3.055v3.055h-1.74zM51.55 91h1.15v1.25h-1.15zm1.67 0h1.158v1.25H53.22zm-3.048 2.153h1.745v3.832a2.28 2.28 0 0 0 .251 1.215.881.881 0 0 0 .8.378.971.971 0 0 0 .847-.4 2.026 2.026 0 0 0 .286-1.19v-3.833h1.659v3.832a3.037 3.037 0 0 1-.7 2.183 3.38 3.38 0 0 1-4.186-.01 3.036 3.036 0 0 1-.707-2.173zm-6.824 0h1.98l1.294 2.763 1.3-2.783h1.88l-2.376 4.119v2.468h-1.732v-2.445zM38.776 91h1.153v1.25h-1.153zm1.67 0h1.163v1.25h-1.164zM37.4 93.155h1.745v3.832a2.28 2.28 0 0 0 .251 1.215.881.881 0 0 0 .8.378.971.971 0 0 0 .847-.4 2.026 2.026 0 0 0 .286-1.19v-3.835h1.66v3.832a3.037 3.037 0 0 1-.7 2.183 2.788 2.788 0 0 1-2.1.721 2.768 2.768 0 0 1-2.086-.746 3.036 3.036 0 0 1-.7-2.173zm-6.237 0h2.682a3.069 3.069 0 0 1 1.785.429 1.465 1.465 0 0 1 .6 1.276 1.432 1.432 0 0 1-.311.948 1.763 1.763 0 0 1-.912.545 1.766 1.766 0 0 1 1.033.534 1.518 1.518 0 0 1 .366 1.008 1.546 1.546 0 0 1-.657 1.371 3.663 3.663 0 0 1-2.031.449H31.16zm1.71 1.185v1.472h.527a1.5 1.5 0 0 0 .827-.187.647.647 0 0 0 .276-.575.6.6 0 0 0-.256-.529 1.338 1.338 0 0 0-.762-.176zm0 2.637v1.548h.687a1.368 1.368 0 0 0 .807-.2.677.677 0 0 0 .281-.585.667.667 0 0 0-.256-.565 1.238 1.238 0 0 0-.757-.192zm43.174-10.039h.8v2.435h1.213v.6h-2.003zm-5.324 0h.8V88.7a1.049 1.049 0 0 0 .115.56.405.405 0 0 0 .366.176.445.445 0 0 0 .391-.187.942.942 0 0 0 .13-.55v-1.761h.767V88.7a1.4 1.4 0 0 1-.321 1.008 1.557 1.557 0 0 1-1.93 0 1.392 1.392 0 0 1-.326-1.008zm-5.054 0H66.9a1.413 1.413 0 0 1 .822.2.677.677 0 0 1 .276.59.663.663 0 0 1-.145.439.816.816 0 0 1-.421.252.816.816 0 0 1 .476.247.688.688 0 0 1 .165.474.712.712 0 0 1-.306.635 1.687 1.687 0 0 1-.938.207h-1.155zm.787.534v.676h.221a.679.679 0 0 0 .381-.086.3.3 0 0 0 .125-.262.278.278 0 0 0-.12-.247.614.614 0 0 0-.351-.081zm0 1.215v.713h.316a.629.629 0 0 0 .371-.091.313.313 0 0 0 .13-.272.308.308 0 0 0-.115-.262.569.569 0 0 0-.346-.091zm-6.3-1.765h1l.872 1.82a2.712 2.712 0 0 1 .105.257l.06.182.07.222q-.04-.227-.055-.418a1.892 1.892 0 0 1 0-.338v-1.724h.727v3.025h-1l-.907-1.886a2.772 2.772 0 0 1-.115-.282q-.045-.136-.1-.333l.035.237a1.784 1.784 0 0 0 .025.262.4.4 0 0 1 0 .207v1.795h-.722zm-4.462 0h.953l1.143 3.025h-.857l-.216-.64h-1.156l-.226.64h-.8zm.451.676l-.391 1.134h.767zm-5.931-.676h2.3v.61h-.747v2.425h-.8v-2.424h-.752zm-2.542.045l-.05.61a2.582 2.582 0 0 0-.356-.116l-.165-.03h-.16a.763.763 0 0 0-.381.081.237.237 0 0 0-.135.212.233.233 0 0 0 .07.166.531.531 0 0 0 .211.121l.135.04a2.559 2.559 0 0 1 .687.3.75.75 0 0 1 .231.282.882.882 0 0 1 .075.373.925.925 0 0 1-.331.766 1.5 1.5 0 0 1-.958.267 3.264 3.264 0 0 1-.451-.03 3.44 3.44 0 0 1-.456-.1l.07-.676a2.279 2.279 0 0 0 .411.146l.191.035h.19a.684.684 0 0 0 .376-.091.278.278 0 0 0 .14-.242q0-.187-.441-.343l-.165-.055a1.5 1.5 0 0 1-.612-.358.764.764 0 0 1-.186-.5.829.829 0 0 1 .326-.7 1.5 1.5 0 0 1 .933-.247 3.105 3.105 0 0 1 .426.03l.2.03zM42.24 85.92h.551v.595h-.551zm-.13 1.008h.8v3.025h-.8z" class="prefix__cls-1" data-name="&lt;Compound Path&gt;" transform="translate(-31.16 -85.92)"/>
                </g>
            </g>
        </g>
    </g>
</svg>
